{"glyphs":{"0":{"ha":1269,"x_min":0,"x_max":0,"o":"m 860 979 b 959 948 895 971 928 960 b 1054 894 990 935 1022 918 b 1138 815 1087 871 1114 845 b 1194 701 1161 784 1180 747 b 1217 551 1209 656 1217 606 l 1217 435 b 1024 71 1217 267 1152 146 b 860 7 974 42 919 21 b 634 -17 792 -9 717 -17 b 410 7 551 -17 476 -9 b 309 38 374 15 340 26 b 214 92 278 51 246 69 b 131 172 181 115 154 141 b 75 285 109 202 90 239 b 53 435 60 330 53 380 l 53 551 b 244 915 53 719 117 840 b 410 979 293 944 348 965 b 634 1003 476 995 551 1003 b 860 979 717 1003 792 995 m 635 282 b 792 325 706 282 759 296 b 843 458 826 354 843 398 l 843 528 b 779 669 843 594 822 641 b 635 703 744 692 696 703 b 425 528 495 703 425 644 l 425 458 b 489 317 425 390 446 343 b 635 282 525 294 574 282 "},"1":{"ha":654,"x_min":0,"x_max":0,"o":"m 600 300 l 600 6 l 103 6 l 103 300 l 167 300 l 167 651 l 54 621 l 54 921 l 215 978 l 539 978 l 539 300 "},"2":{"ha":1078,"x_min":0,"x_max":0,"o":"m 688 361 b 547 300 616 339 569 319 l 1010 300 l 1010 7 l 54 7 l 54 178 b 65 249 54 203 58 227 b 90 310 72 272 80 292 b 133 363 100 328 115 346 b 183 408 151 380 168 395 b 244 445 199 420 219 433 b 308 476 269 458 291 468 b 377 503 326 484 349 493 b 442 525 405 513 427 520 b 506 544 458 530 479 536 l 510 546 b 587 570 544 556 570 564 b 647 594 604 576 624 584 b 697 622 670 603 687 613 b 711 650 706 630 711 640 b 673 694 711 669 698 683 b 568 710 647 704 613 710 b 392 661 476 709 418 693 b 376 610 381 647 376 630 l 376 600 l 65 600 l 65 610 b 204 931 65 763 112 870 b 556 1003 278 979 395 1003 b 897 929 707 1003 821 978 b 1022 674 981 875 1022 790 b 1010 592 1022 645 1018 618 b 980 527 1001 567 991 545 b 931 475 968 509 952 492 b 876 435 910 458 892 445 b 811 404 859 426 838 415 b 749 380 784 393 764 385 b 689 361 735 375 715 369 "},"3":{"ha":1199,"x_min":0,"x_max":0,"o":"m 1142 700 b 1019 493 1142 611 1101 542 b 1142 285 1101 444 1142 375 b 1000 56 1142 183 1094 106 b 611 -17 910 7 781 -17 b 210 57 428 -17 294 8 b 53 375 105 117 53 223 l 53 385 l 401 385 l 401 375 b 456 300 401 337 419 312 b 604 286 480 292 529 287 l 624 286 b 793 349 737 286 793 307 b 785 378 793 363 791 372 b 753 392 780 383 769 388 b 518 399 727 396 649 399 l 500 399 l 500 586 l 510 586 b 751 594 642 586 722 589 b 793 636 779 599 793 613 b 781 665 793 648 789 658 b 624 700 759 689 707 701 l 606 700 b 533 697 575 699 551 698 b 478 691 516 696 497 694 b 435 677 458 688 444 683 b 411 651 425 671 418 663 b 401 611 405 640 401 627 l 401 600 l 53 600 l 53 611 b 210 929 53 763 105 869 b 611 1001 294 977 428 1001 b 1000 929 781 1001 910 977 b 1142 700 1094 878 1142 802 "},"4":{"ha":1183,"x_min":0,"x_max":0,"o":"m 1010 468 l 1133 468 l 1133 168 l 1010 168 l 1010 6 l 661 6 l 661 168 l 44 168 l 44 463 l 668 978 l 1010 978 m 661 468 l 661 675 l 411 468 "},"5":{"ha":1192,"x_min":0,"x_max":0,"o":"m 510 635 b 620 634 559 635 596 634 b 722 631 645 634 679 632 b 822 623 766 629 799 626 b 909 608 845 620 874 615 b 989 582 944 601 970 592 b 1051 544 1007 572 1028 559 b 1101 491 1073 528 1090 511 b 1130 421 1113 471 1122 448 b 1142 331 1138 394 1142 364 b 1136 278 1142 314 1140 297 b 1115 217 1132 260 1125 240 b 1074 151 1104 194 1091 172 b 1008 88 1058 130 1036 109 b 912 34 979 67 947 49 b 781 -3 876 19 832 6 b 611 -17 729 -12 672 -17 b 210 57 428 -17 294 8 b 53 375 105 117 53 223 l 53 385 l 401 385 l 401 375 b 604 286 401 316 469 286 b 793 358 730 286 793 310 b 785 393 793 372 790 384 b 749 420 779 402 767 411 b 663 440 731 429 703 435 b 510 446 624 444 573 446 l 53 446 l 53 461 l 157 979 l 1079 979 l 1038 703 l 450 703 l 438 635 l 510 635 "},"6":{"ha":1193,"x_min":0,"x_max":0,"o":"m 511 635 b 622 634 560 635 597 634 b 724 631 646 634 680 632 b 824 623 767 629 800 626 b 910 608 847 620 876 615 b 990 582 945 601 972 592 b 1052 544 1009 572 1029 559 b 1103 491 1075 528 1092 511 b 1131 421 1114 471 1123 448 b 1143 331 1139 394 1143 364 b 1138 278 1143 314 1141 297 b 1116 217 1134 260 1127 240 b 1076 151 1105 194 1092 172 b 1009 88 1059 130 1037 109 b 913 34 981 67 949 49 b 782 -3 878 19 834 6 b 613 -17 730 -12 674 -17 b 211 57 429 -17 295 8 b 94 184 159 87 120 129 b 54 375 67 239 54 303 b 58 505 54 417 55 460 b 65 610 60 550 63 585 l 68 646 b 81 731 68 674 72 702 b 122 820 89 760 103 790 b 190 900 141 850 163 877 b 292 957 217 923 251 942 b 424 979 332 972 376 979 l 1081 979 l 1039 703 l 497 703 b 463 690 484 703 473 699 b 443 658 452 682 446 671 l 439 635 l 511 635 m 606 286 b 794 358 731 286 794 310 b 786 393 794 372 792 384 b 751 420 781 402 769 411 b 665 440 733 429 704 435 b 511 446 625 444 574 446 l 403 446 l 403 375 b 606 286 403 316 470 286 "},"7":{"ha":1038,"x_min":0,"x_max":0,"o":"m 36 978 l 994 978 l 994 686 l 518 6 l 81 6 l 614 707 l 63 707 "},"8":{"ha":1181,"x_min":0,"x_max":0,"o":"m 1001 493 b 1103 385 1050 464 1083 428 b 1124 285 1117 355 1124 322 b 982 56 1124 183 1076 106 b 640 -17 901 12 788 -12 l 637 -17 l 635 -17 l 604 -17 l 586 -17 l 575 -17 l 546 -17 l 540 -17 b 197 56 393 -12 279 12 b 56 285 103 106 56 183 b 76 385 56 322 63 355 b 178 492 97 427 131 463 b 76 600 130 520 96 556 b 56 700 63 630 56 663 b 197 929 56 802 103 878 b 540 1001 279 973 393 997 l 546 1001 l 575 1001 l 586 1001 l 604 1001 l 635 1001 l 640 1001 b 982 929 788 997 901 973 b 1124 700 1076 878 1124 802 b 1103 600 1124 663 1117 630 b 1001 493 1083 557 1050 522 m 535 699 b 406 636 449 694 406 673 b 413 608 406 623 408 614 b 444 593 417 602 428 597 b 576 586 467 589 511 587 b 685 588 625 586 661 587 b 744 597 710 590 729 592 b 770 611 758 601 767 606 b 775 636 773 617 775 625 b 764 665 775 647 771 657 b 685 696 750 680 724 690 b 593 699 667 697 637 698 l 574 699 l 560 699 l 557 699 l 547 699 m 646 286 b 775 349 732 291 775 312 b 767 377 775 362 772 371 b 735 392 762 383 751 388 b 603 399 713 395 669 398 b 494 397 555 399 518 398 b 435 388 469 395 450 392 b 410 374 421 384 413 379 b 406 349 407 368 406 360 b 417 319 406 338 409 328 b 494 289 431 305 456 294 b 586 286 513 288 544 287 l 607 286 l 621 286 l 622 286 l 638 286 "},"9":{"ha":1193,"x_min":0,"x_max":0,"o":"m 681 328 b 570 328 631 328 595 328 b 468 332 546 329 512 330 b 368 340 425 334 391 336 b 281 355 345 343 316 348 b 201 381 247 362 220 370 b 140 419 183 391 162 403 b 89 472 117 434 100 452 b 60 542 78 491 68 515 b 49 632 53 569 49 599 b 54 684 49 649 50 666 b 76 746 58 702 65 723 b 117 812 86 769 100 791 b 183 874 133 833 156 853 b 278 928 211 895 243 913 b 410 965 314 944 358 956 b 579 979 462 975 518 979 b 981 907 763 979 897 955 b 1098 778 1032 876 1072 834 b 1138 588 1124 723 1138 660 b 1134 458 1138 546 1136 503 b 1126 354 1132 413 1129 378 l 1124 317 b 1111 231 1124 289 1119 260 b 1070 142 1103 202 1089 172 b 1001 63 1051 112 1028 86 b 900 6 975 39 941 20 b 768 -17 859 -9 815 -17 l 111 -17 l 153 260 l 696 260 b 730 272 709 260 720 264 b 749 304 740 281 746 291 l 753 328 l 681 328 m 586 676 b 399 606 461 676 399 653 b 406 570 399 591 401 579 b 441 543 411 561 423 552 b 527 523 459 534 488 527 b 681 517 566 519 618 517 l 789 517 l 789 588 b 586 676 789 647 721 676 "},"\u000b":{"ha":732,"x_min":0,"x_max":0,"o":"m 663 972 l 663 0 l 69 0 l 69 972 m 365 515 l 624 944 l 108 944 m 99 903 l 99 68 l 349 486 m 110 29 l 624 29 l 367 457 m 635 65 l 635 906 l 383 486 "},"\f":{"ha":732,"x_min":0,"x_max":0,"o":"m 69 972 l 69 0 l 663 0 l 663 972 m 108 944 l 624 944 l 365 515 m 349 486 l 99 68 l 99 903 m 367 457 l 624 29 l 110 29 m 383 486 l 635 906 l 635 65 "},"¤":{"ha":732,"x_min":0,"x_max":0,"o":"m 663 972 l 663 0 l 69 0 l 69 972 m 365 515 l 624 944 l 108 944 m 99 903 l 99 68 l 349 486 m 110 29 l 624 29 l 367 457 m 635 65 l 635 906 l 383 486 "},"¦":{"ha":732,"x_min":0,"x_max":0,"o":"m 69 972 l 69 0 l 663 0 l 663 972 m 108 944 l 624 944 l 365 515 m 349 486 l 99 68 l 99 903 m 367 457 l 624 29 l 110 29 m 383 486 l 635 906 l 635 65 "},"¨":{"ha":732,"x_min":0,"x_max":0,"o":"m 663 972 l 663 0 l 69 0 l 69 972 m 365 515 l 624 944 l 108 944 m 99 903 l 99 68 l 349 486 m 110 29 l 624 29 l 367 457 m 635 65 l 635 906 l 383 486 "},"¬":{"ha":732,"x_min":0,"x_max":0,"o":"m 69 972 l 69 0 l 663 0 l 663 972 m 108 944 l 624 944 l 365 515 m 349 486 l 99 68 l 99 903 m 367 457 l 624 29 l 110 29 m 383 486 l 635 906 l 635 65 "},"¯":{"ha":732,"x_min":0,"x_max":0,"o":"m 663 972 l 663 0 l 69 0 l 69 972 m 365 515 l 624 944 l 108 944 m 99 903 l 99 68 l 349 486 m 110 29 l 624 29 l 367 457 m 635 65 l 635 906 l 383 486 "},"±":{"ha":732,"x_min":0,"x_max":0,"o":"m 69 972 l 69 0 l 663 0 l 663 972 m 108 944 l 624 944 l 365 515 m 349 486 l 99 68 l 99 903 m 367 457 l 624 29 l 110 29 m 383 486 l 635 906 l 635 65 "},"´":{"ha":732,"x_min":0,"x_max":0,"o":"m 663 972 l 663 0 l 69 0 l 69 972 m 365 515 l 624 944 l 108 944 m 99 903 l 99 68 l 349 486 m 110 29 l 624 29 l 367 457 m 635 65 l 635 906 l 383 486 "},"µ":{"ha":732,"x_min":0,"x_max":0,"o":"m 69 972 l 69 0 l 663 0 l 663 972 m 108 944 l 624 944 l 365 515 m 349 486 l 99 68 l 99 903 m 367 457 l 624 29 l 110 29 m 383 486 l 635 906 l 635 65 "},"¶":{"ha":732,"x_min":0,"x_max":0,"o":"m 663 972 l 663 0 l 69 0 l 69 972 m 365 515 l 624 944 l 108 944 m 99 903 l 99 68 l 349 486 m 110 29 l 624 29 l 367 457 m 635 65 l 635 906 l 383 486 "},"¸":{"ha":732,"x_min":0,"x_max":0,"o":"m 69 972 l 69 0 l 663 0 l 663 972 m 108 944 l 624 944 l 365 515 m 349 486 l 99 68 l 99 903 m 367 457 l 624 29 l 110 29 m 383 486 l 635 906 l 635 65 "},"―":{"ha":732,"x_min":0,"x_max":0,"o":"m 663 972 l 663 0 l 69 0 l 69 972 m 365 515 l 624 944 l 108 944 m 99 903 l 99 68 l 349 486 m 110 29 l 624 29 l 367 457 m 635 65 l 635 906 l 383 486 "},"‖":{"ha":732,"x_min":0,"x_max":0,"o":"m 69 972 l 69 0 l 663 0 l 663 972 m 108 944 l 624 944 l 365 515 m 349 486 l 99 68 l 99 903 m 367 457 l 624 29 l 110 29 m 383 486 l 635 906 l 635 65 "},"‗":{"ha":732,"x_min":0,"x_max":0,"o":"m 663 972 l 663 0 l 69 0 l 69 972 m 365 515 l 624 944 l 108 944 m 99 903 l 99 68 l 349 486 m 110 29 l 624 29 l 367 457 m 635 65 l 635 906 l 383 486 "},"‚":{"ha":732,"x_min":0,"x_max":0,"o":"m 69 972 l 69 0 l 663 0 l 663 972 m 108 944 l 624 944 l 365 515 m 349 486 l 99 68 l 99 903 m 367 457 l 624 29 l 110 29 m 383 486 l 635 906 l 635 65 "},"‛":{"ha":732,"x_min":0,"x_max":0,"o":"m 663 972 l 663 0 l 69 0 l 69 972 m 365 515 l 624 944 l 108 944 m 99 903 l 99 68 l 349 486 m 110 29 l 624 29 l 367 457 m 635 65 l 635 906 l 383 486 "},"‟":{"ha":732,"x_min":0,"x_max":0,"o":"m 69 972 l 69 0 l 663 0 l 663 972 m 108 944 l 624 944 l 365 515 m 349 486 l 99 68 l 99 903 m 367 457 l 624 29 l 110 29 m 383 486 l 635 906 l 635 65 "},"‡":{"ha":732,"x_min":0,"x_max":0,"o":"m 663 972 l 663 0 l 69 0 l 69 972 m 365 515 l 624 944 l 108 944 m 99 903 l 99 68 l 349 486 m 110 29 l 624 29 l 367 457 m 635 65 l 635 906 l 383 486 "},"‣":{"ha":732,"x_min":0,"x_max":0,"o":"m 69 972 l 69 0 l 663 0 l 663 972 m 108 944 l 624 944 l 365 515 m 349 486 l 99 68 l 99 903 m 367 457 l 624 29 l 110 29 m 383 486 l 635 906 l 635 65 "},"․":{"ha":732,"x_min":0,"x_max":0,"o":"m 663 972 l 663 0 l 69 0 l 69 972 m 365 515 l 624 944 l 108 944 m 99 903 l 99 68 l 349 486 m 110 29 l 624 29 l 367 457 m 635 65 l 635 906 l 383 486 "},"‥":{"ha":732,"x_min":0,"x_max":0,"o":"m 69 972 l 69 0 l 663 0 l 663 972 m 108 944 l 624 944 l 365 515 m 349 486 l 99 68 l 99 903 m 367 457 l 624 29 l 110 29 m 383 486 l 635 906 l 635 65 "},"\u0000":{"ha":0,"x_min":0,"x_max":0,"o":""},"\n":{"ha":0,"x_min":0,"x_max":0,"o":""},"\r":{"ha":0,"x_min":0,"x_max":0,"o":""}," ":{"ha":683,"x_min":0,"x_max":0,"o":""},"!":{"ha":482,"x_min":0,"x_max":0,"o":"m 140 -35 b 102 -19 125 -35 113 -29 b 86 21 91 -8 86 5 l 86 210 b 102 248 86 225 91 237 b 140 264 113 259 125 264 l 340 264 b 379 248 355 264 368 259 b 396 210 390 237 396 225 l 396 21 b 379 -19 396 5 390 -8 b 340 -35 368 -29 355 -35 m 372 1031 b 410 1015 387 1031 400 1025 b 424 976 420 1004 425 991 l 397 394 b 382 359 397 381 392 369 b 346 344 372 349 360 344 l 135 344 b 99 359 121 344 109 349 b 83 394 90 369 84 381 l 57 976 b 71 1015 56 991 61 1004 b 108 1031 81 1025 94 1031 "},"\"":{"ha":772,"x_min":0,"x_max":0,"o":"m 306 1053 b 346 1034 321 1053 335 1047 b 360 990 357 1022 362 1007 l 304 546 b 287 511 303 532 297 520 b 250 497 276 502 264 497 l 153 497 b 117 511 139 497 127 502 b 99 546 106 520 100 532 l 43 990 b 57 1034 41 1007 46 1022 b 97 1053 68 1047 81 1053 l 306 1053 m 675 1053 b 715 1034 691 1053 704 1047 b 729 990 726 1022 731 1007 l 674 546 b 656 511 672 532 666 520 b 619 497 645 502 633 497 l 522 497 b 485 511 508 497 496 502 b 468 546 475 520 469 532 l 413 990 b 426 1034 411 1007 415 1022 b 467 1053 436 1047 450 1053 l 675 1053 "},"#":{"ha":1600,"x_min":0,"x_max":0,"o":"m 1278 590 l 1244 449 l 1461 449 l 1461 150 l 1175 150 l 1138 -12 l 788 -12 l 825 150 l 604 150 l 567 -12 l 217 -12 l 254 150 l 51 150 l 51 449 l 322 449 l 356 590 l 139 590 l 139 890 l 425 890 l 463 1053 l 814 1053 l 776 890 l 996 890 l 1033 1053 l 1385 1053 l 1347 890 l 1549 890 l 1549 590 m 707 590 l 674 449 l 894 449 l 928 590 "},"$":{"ha":1310,"x_min":0,"x_max":0,"o":"m 764 610 b 877 601 807 607 845 604 b 980 589 909 599 943 594 b 1073 568 1016 583 1047 576 b 1149 535 1098 560 1124 549 b 1208 486 1174 521 1194 505 b 1244 419 1223 468 1235 445 b 1258 332 1254 394 1258 364 b 1138 88 1258 225 1218 143 b 764 -6 1057 33 932 2 l 764 -154 l 546 -154 l 546 -7 b 185 71 380 0 260 26 b 51 329 96 124 51 210 l 51 339 l 417 339 l 417 329 b 418 317 417 325 417 321 b 426 301 419 314 422 309 b 444 283 430 294 436 288 b 483 266 453 278 466 272 b 546 251 501 260 522 255 l 546 369 b 182 446 377 379 256 404 b 65 661 104 490 65 562 b 188 878 65 754 106 826 b 546 971 269 931 388 962 l 546 1119 l 764 1119 l 764 971 b 1108 885 915 962 1030 933 b 1240 651 1196 831 1240 753 l 1240 642 l 875 642 l 875 651 b 764 710 875 676 838 696 l 764 610 m 892 325 b 886 342 892 332 890 338 b 852 352 882 345 871 349 b 764 360 833 355 804 358 l 764 250 b 832 265 791 254 813 259 b 872 287 850 272 864 279 b 888 308 879 295 885 302 b 892 325 890 314 892 319 m 431 644 b 438 632 431 639 433 635 b 469 624 442 629 453 627 b 546 618 486 622 512 620 l 546 717 b 485 703 522 714 501 709 b 449 682 468 696 456 689 b 435 662 442 675 438 668 b 431 644 432 656 431 650 "},"%":{"ha":1969,"x_min":0,"x_max":0,"o":"m 782 692 b 660 460 782 584 741 507 b 556 419 627 441 593 428 b 414 406 506 410 458 406 b 272 419 368 406 320 410 b 102 515 197 437 141 469 b 44 692 64 562 44 620 l 44 765 b 167 997 44 873 85 950 b 272 1038 199 1016 234 1029 b 414 1053 320 1048 368 1053 b 556 1038 458 1053 506 1048 b 782 765 707 1001 783 911 l 782 692 m 307 707 b 335 639 307 675 316 652 b 414 622 352 628 379 622 b 495 642 451 622 478 629 b 521 707 512 656 521 677 l 521 750 b 492 818 521 783 511 806 b 414 836 475 830 449 836 b 332 815 376 836 349 829 b 307 750 315 801 307 780 m 1339 1053 l 981 -12 l 629 -12 l 988 1053 m 1696 621 b 1776 593 1725 614 1751 605 b 1848 544 1800 581 1824 565 b 1903 463 1872 524 1890 497 b 1924 347 1917 429 1924 391 l 1924 275 b 1801 43 1924 168 1883 90 b 1696 1 1768 24 1733 10 b 1554 -12 1647 -8 1600 -12 b 1413 1 1509 -12 1462 -8 b 1185 275 1261 38 1185 129 l 1185 347 b 1307 579 1185 455 1225 532 b 1413 621 1340 599 1375 613 b 1554 635 1462 630 1509 635 b 1696 621 1600 635 1647 630 m 1447 289 b 1475 222 1447 256 1456 234 b 1554 204 1493 210 1519 204 b 1635 224 1591 204 1618 211 b 1661 289 1653 238 1661 259 l 1661 332 b 1632 400 1661 365 1651 388 b 1554 418 1615 412 1589 418 b 1472 398 1516 418 1489 411 b 1447 332 1456 384 1447 363 "},"&":{"ha":1075,"x_min":0,"x_max":0,"o":"m 1025 429 l 926 429 b 932 414 928 424 930 419 b 949 299 943 379 949 340 b 831 33 949 181 909 93 b 544 -49 763 -17 668 -44 l 542 -49 l 540 -49 b 515 -50 531 -49 523 -49 l 500 -50 l 492 -50 b 467 -49 482 -49 474 -49 l 461 -49 b 175 33 338 -44 243 -17 b 57 299 96 93 57 181 b 75 414 57 340 63 379 b 160 538 92 463 120 504 b 75 661 119 570 91 611 b 57 776 63 696 57 735 b 175 1042 57 894 96 982 b 461 1124 243 1092 338 1119 l 464 1124 l 467 1124 b 492 1125 476 1125 484 1125 l 500 1125 l 515 1125 b 540 1124 524 1124 532 1124 l 544 1124 b 831 1042 668 1119 763 1092 b 949 776 909 982 949 894 b 947 742 949 765 948 754 l 644 742 b 582 772 632 756 612 767 b 507 775 567 773 542 774 l 489 775 l 478 775 l 476 775 l 467 775 l 457 775 b 349 704 385 769 349 746 b 355 670 349 688 351 677 b 382 654 359 663 368 658 b 492 646 400 650 437 647 l 1025 646 m 550 300 b 657 371 621 306 657 329 b 651 405 657 387 655 398 b 625 421 648 412 639 417 b 514 429 606 426 569 429 b 401 424 461 429 424 428 b 358 408 379 421 365 416 b 349 371 352 401 349 388 b 358 338 349 358 352 347 b 424 303 369 321 391 309 b 500 300 438 302 464 301 l 517 300 l 528 300 l 531 300 l 543 300 l 550 300 "},"'":{"ha":404,"x_min":0,"x_max":0,"o":"m 329 1053 b 354 1042 339 1053 348 1049 b 363 1015 361 1034 363 1025 l 303 526 b 292 506 302 518 298 511 b 269 497 285 500 278 497 l 133 497 b 112 506 125 497 118 500 b 100 526 106 511 102 518 l 40 1015 b 49 1042 39 1025 42 1034 b 74 1053 55 1049 63 1053 "},"(":{"ha":718,"x_min":0,"x_max":0,"o":"m 418 788 b 389 714 399 767 389 743 l 389 249 b 418 174 389 220 399 195 b 489 143 438 153 461 143 l 675 143 l 675 -156 l 379 -156 l 375 -156 b 161 -64 294 -156 222 -125 b 86 48 129 -31 104 6 b 61 179 69 90 60 134 l 61 783 b 86 915 60 829 69 872 b 161 1026 104 957 129 994 b 379 1118 223 1088 296 1119 l 675 1118 l 675 819 l 489 819 b 418 788 461 819 438 809 "},")":{"ha":718,"x_min":0,"x_max":0,"o":"m 557 1026 b 631 915 589 995 614 958 b 657 783 648 873 657 829 l 657 179 b 631 47 657 134 648 90 b 557 -64 614 5 589 -32 b 343 -156 496 -125 425 -156 l 339 -156 l 43 -156 l 43 143 l 229 143 b 299 174 256 143 279 153 b 329 249 319 195 329 220 l 329 714 b 299 788 329 743 319 767 b 229 819 279 809 256 819 l 43 819 l 43 1118 l 339 1118 b 557 1026 422 1119 495 1088 "},"*":{"ha":815,"x_min":0,"x_max":0,"o":"m 553 644 l 715 486 l 500 321 l 407 532 l 317 321 l 100 486 l 261 644 l 43 671 l 125 939 l 317 825 l 274 1053 l 540 1053 l 497 825 l 689 939 l 772 672 "},"+":{"ha":1164,"x_min":0,"x_max":0,"o":"m 1119 625 l 1119 326 l 746 326 l 746 1 l 418 1 l 418 326 l 44 326 l 44 625 l 418 625 l 418 950 l 746 950 l 746 625 "},",":{"ha":401,"x_min":0,"x_max":0,"o":"m 326 288 b 347 278 335 288 342 284 b 356 257 353 272 356 265 l 356 1 b 353 -11 356 -3 355 -7 l 232 -274 b 206 -290 226 -285 218 -290 l 136 -290 b 112 -279 126 -290 118 -287 b 107 -254 106 -272 104 -263 l 161 -50 b 156 -24 163 -41 161 -32 b 132 -12 150 -16 142 -12 l 75 -12 b 54 -4 67 -12 60 -10 b 46 17 49 1 46 8 l 46 257 b 54 278 46 265 49 272 b 75 288 60 284 67 288 l 326 288 "},"-":{"ha":1101,"x_min":0,"x_max":0,"o":"m 46 325 l 46 624 l 1056 624 l 1056 325 "},".":{"ha":401,"x_min":0,"x_max":0,"o":"m 75 -12 b 54 -4 67 -12 60 -10 b 46 17 49 1 46 8 l 46 257 b 54 278 46 265 49 272 b 75 286 60 283 67 286 l 326 286 b 347 278 335 286 342 283 b 356 257 353 272 356 265 l 356 17 b 347 -4 356 8 353 1 b 326 -12 342 -10 335 -12 "},"/":{"ha":917,"x_min":0,"x_max":0,"o":"m 847 1015 l 443 -50 l 69 -50 l 472 1015 "},":":{"ha":421,"x_min":0,"x_max":0,"o":"m 85 -12 b 64 -4 76 -12 69 -10 b 56 17 58 1 56 8 l 56 257 b 64 278 56 265 58 272 b 85 286 69 283 76 286 l 336 286 b 357 278 344 286 351 283 b 365 257 363 272 365 265 l 365 17 b 357 -4 365 8 363 1 b 336 -12 351 -10 344 -12 m 85 388 b 64 397 76 388 69 391 b 56 417 58 403 56 409 l 56 657 b 64 678 56 665 58 672 b 85 686 69 683 76 686 l 336 686 b 357 678 344 686 351 683 b 365 657 363 672 365 665 l 365 417 b 357 397 365 409 363 403 b 336 388 351 391 344 388 "},";":{"ha":421,"x_min":0,"x_max":0,"o":"m 336 288 b 357 278 344 288 351 284 b 365 257 363 272 365 265 l 365 1 b 363 -11 365 -3 364 -7 l 242 -274 b 215 -290 236 -285 227 -290 l 146 -290 b 122 -279 136 -290 128 -287 b 117 -254 116 -272 114 -263 l 171 -50 b 165 -24 173 -41 171 -32 b 142 -12 160 -16 152 -12 l 85 -12 b 64 -4 76 -12 69 -10 b 56 17 58 1 56 8 l 56 257 b 64 278 56 265 58 272 b 85 288 69 284 76 288 l 336 288 m 85 388 b 64 397 76 388 69 391 b 56 417 58 403 56 409 l 56 657 b 64 678 56 665 58 672 b 85 686 69 683 76 686 l 336 686 b 357 678 344 686 351 683 b 365 657 363 672 365 665 l 365 417 b 357 397 365 409 363 403 b 336 388 351 391 344 388 "},"=":{"ha":1186,"x_min":0,"x_max":0,"o":"m 56 106 l 56 404 l 1131 404 l 1131 106 m 56 544 l 56 843 l 1131 843 l 1131 544 "},"?":{"ha":938,"x_min":0,"x_max":0,"o":"m 360 -12 b 324 3 346 -12 334 -7 b 308 39 313 13 308 25 l 308 189 b 324 225 308 203 313 215 b 360 240 334 235 346 240 l 550 240 b 586 225 564 240 576 235 b 601 189 596 215 601 203 l 601 39 b 586 3 601 25 596 13 b 550 -12 576 -7 564 -12 m 593 1053 b 726 1033 644 1053 688 1046 b 814 985 763 1020 793 1004 b 864 911 835 965 852 941 b 888 825 876 881 884 853 b 894 729 892 797 894 765 b 885 651 894 700 891 673 b 863 597 878 628 871 610 b 827 562 855 584 843 572 b 788 540 811 551 798 544 b 742 524 777 535 762 530 l 739 522 b 683 501 716 515 697 508 b 642 472 669 494 656 484 b 611 422 628 459 618 442 b 601 346 605 401 601 375 l 601 336 l 308 336 l 308 346 b 319 447 308 383 312 417 b 344 524 326 478 334 503 b 383 581 353 545 366 564 b 426 622 399 598 413 612 b 476 649 439 631 456 640 b 523 666 497 657 512 663 b 567 676 534 669 548 673 b 633 700 596 685 618 693 b 654 729 647 707 654 717 b 635 778 654 754 648 770 b 550 792 620 787 592 792 l 378 792 b 293 779 336 792 308 788 b 274 729 280 772 274 755 l 274 696 l 35 696 l 33 704 l 33 729 b 82 947 33 825 50 897 b 172 1024 102 978 132 1003 b 335 1053 212 1043 266 1053 "},"@":{"ha":1394,"x_min":0,"x_max":0,"o":"m 1118 1101 b 1333 764 1262 1038 1333 926 l 1333 158 l 1050 158 l 1050 275 b 1035 258 1046 271 1041 266 l 1029 253 b 924 181 999 223 963 199 b 765 146 874 157 821 146 b 475 243 626 146 530 178 b 413 470 433 294 413 370 b 475 697 413 571 433 646 b 765 794 530 762 626 794 b 1029 688 866 794 954 759 l 1029 686 b 1035 681 1031 685 1033 683 l 1050 665 l 1050 725 b 933 860 1050 788 1011 833 b 815 883 898 872 859 880 b 708 889 768 887 732 889 b 598 881 673 889 636 886 b 481 853 559 875 520 866 b 383 799 441 841 408 823 b 346 714 358 775 346 746 l 346 226 b 369 154 346 200 353 175 b 431 104 384 133 405 116 b 510 74 458 92 484 82 b 593 58 536 66 563 61 b 656 53 623 56 644 54 b 686 51 669 52 679 51 l 719 51 l 719 -225 l 686 -225 b 478 -208 619 -225 550 -219 b 276 -150 406 -196 338 -177 b 61 192 133 -87 61 27 l 61 749 b 276 1090 61 913 133 1027 b 490 1147 339 1117 411 1136 b 708 1165 569 1159 642 1165 b 1118 1101 887 1164 1024 1143 m 986 472 b 910 536 965 499 939 520 b 814 560 883 552 851 560 b 740 555 782 560 758 558 b 700 537 722 552 708 546 b 684 510 692 528 686 519 b 681 469 682 502 681 488 b 701 401 681 435 688 413 b 814 381 716 388 754 381 b 986 468 881 381 938 410 l 988 469 "},"A":{"ha":1353,"x_min":0,"x_max":0,"o":"m 885 972 l 1361 0 l 957 0 l 901 129 l 451 129 l 396 0 l -10 0 l 468 972 m 808 350 l 676 661 l 544 350 "},"B":{"ha":1251,"x_min":0,"x_max":0,"o":"m 1119 526 b 1198 425 1153 499 1179 465 b 1226 299 1217 385 1226 343 b 1140 88 1226 216 1197 146 b 929 0 1082 29 1012 0 l 63 0 l 63 972 l 863 972 b 1072 885 944 972 1014 943 b 1160 675 1131 828 1160 757 b 1119 526 1160 622 1146 573 m 433 650 l 435 650 l 435 596 l 783 596 b 803 604 791 596 797 599 b 811 624 808 610 811 616 b 803 644 811 632 808 639 b 783 653 797 650 791 653 l 433 653 m 850 324 b 869 331 857 324 864 326 b 876 350 874 336 876 343 b 869 369 876 357 874 364 b 850 378 864 375 857 378 l 435 378 l 435 324 "},"C":{"ha":1304,"x_min":0,"x_max":0,"o":"m 654 669 b 464 632 570 669 506 656 b 401 497 421 608 400 563 l 401 474 b 415 399 401 445 406 420 b 451 350 425 378 437 362 b 508 321 466 338 485 328 b 576 306 531 313 554 309 b 654 301 599 304 625 302 b 820 328 725 301 781 310 b 899 410 859 345 886 373 l 900 417 l 1279 417 l 1278 406 b 654 -15 1258 125 1050 -15 b 144 138 416 -15 246 36 b 29 451 67 213 28 318 l 29 521 b 214 890 28 689 90 813 b 654 988 318 954 464 987 b 1278 567 1050 987 1258 846 l 1279 556 l 900 556 l 899 563 b 819 644 885 600 858 627 b 654 669 781 661 725 669 "},"D":{"ha":1253,"x_min":0,"x_max":0,"o":"m 788 972 b 1083 851 902 974 1001 934 b 1190 687 1130 805 1165 750 b 1228 486 1215 623 1228 556 b 1190 285 1228 416 1215 349 b 1083 121 1165 222 1130 167 b 794 0 1002 40 906 0 l 788 0 l 63 0 l 63 972 l 788 972 m 722 322 b 820 371 765 322 797 338 b 854 486 843 403 854 442 b 820 601 854 531 843 569 b 722 650 797 634 765 650 l 435 650 l 435 322 l 722 322 "},"E":{"ha":1176,"x_min":0,"x_max":0,"o":"m 435 650 l 435 596 l 929 596 l 929 376 l 435 376 l 435 322 l 1131 322 l 1131 0 l 63 0 l 63 972 l 1129 972 l 1131 650 "},"F":{"ha":1140,"x_min":0,"x_max":0,"o":"m 435 650 l 435 596 l 929 596 l 929 376 l 435 376 l 435 0 l 63 0 l 63 972 l 1129 972 l 1131 650 "},"G":{"ha":1325,"x_min":0,"x_max":0,"o":"m 1279 543 l 1279 -15 l 907 -15 l 907 61 b 654 -15 841 10 757 -15 b 144 138 417 -15 247 36 b 29 451 67 213 28 318 l 29 521 b 214 890 28 689 90 813 b 654 988 318 954 464 987 b 1276 579 1044 987 1251 850 l 890 579 b 654 669 860 639 781 669 b 464 632 570 669 506 656 b 401 497 421 608 400 563 l 401 474 b 415 399 401 445 406 420 b 451 350 425 378 437 362 b 508 321 466 338 485 328 b 576 306 531 313 554 309 b 654 301 599 304 625 302 b 808 324 719 301 770 309 l 667 324 l 667 543 "},"H":{"ha":1356,"x_min":0,"x_max":0,"o":"m 921 972 l 1293 972 l 1293 0 l 921 0 l 921 376 l 435 376 l 435 0 l 63 0 l 63 972 l 435 972 l 435 596 l 921 596 "},"I":{"ha":497,"x_min":0,"x_max":0,"o":"m 63 0 l 63 972 l 435 972 l 435 0 "},"J":{"ha":1288,"x_min":0,"x_max":0,"o":"m 1242 972 l 1242 456 b 1057 82 1242 285 1180 161 b 615 -15 953 17 806 -15 b 326 22 500 -15 403 -3 b 132 138 248 47 184 86 b 17 456 54 214 16 320 l 17 581 l 389 581 l 389 478 b 440 342 388 411 405 366 b 615 304 475 319 534 306 b 807 343 700 306 764 319 b 869 478 850 367 870 412 l 869 651 l 658 651 l 658 972 "},"K":{"ha":1283,"x_min":0,"x_max":0,"o":"m 1288 972 l 810 486 l 1288 0 l 797 0 l 467 325 l 435 325 l 435 0 l 63 0 l 63 972 l 435 972 l 435 647 l 467 647 l 797 972 "},"L":{"ha":1149,"x_min":0,"x_max":0,"o":"m 435 322 l 1138 322 l 1138 0 l 63 0 l 63 972 l 435 972 "},"M":{"ha":1667,"x_min":0,"x_max":0,"o":"m 1154 972 l 1603 972 l 1603 0 l 1225 0 l 1225 442 l 928 0 l 738 0 l 440 442 l 440 0 l 63 0 l 63 972 l 513 972 l 833 525 "},"N":{"ha":1376,"x_min":0,"x_max":0,"o":"m 940 972 l 1314 972 l 1314 0 l 903 0 l 435 563 l 435 0 l 63 0 l 63 972 l 561 972 l 940 488 "},"O":{"ha":1310,"x_min":0,"x_max":0,"o":"m 1094 890 b 1279 521 1218 813 1279 689 l 1279 451 b 1164 136 1280 318 1242 213 b 654 -15 1062 35 892 -15 b 144 138 416 -15 246 36 b 29 451 67 213 28 318 l 29 521 b 144 836 28 654 67 759 b 654 988 246 937 416 988 b 1094 890 845 988 992 955 m 907 499 b 894 573 908 527 904 552 b 858 622 885 594 873 610 b 801 651 844 634 824 644 b 732 666 777 659 754 664 b 654 671 710 668 684 670 b 576 666 625 670 599 668 b 508 651 554 664 531 659 b 451 622 485 644 466 634 b 415 573 437 610 424 594 b 401 499 405 552 400 527 l 401 475 b 415 400 400 446 405 421 b 451 350 424 379 437 362 b 508 321 466 338 485 328 b 576 306 531 313 554 309 b 654 301 599 304 625 302 b 733 306 684 302 710 304 b 801 321 755 309 778 313 b 858 350 825 328 844 338 b 894 400 873 362 885 379 b 907 475 904 421 908 446 "},"P":{"ha":1278,"x_min":0,"x_max":0,"o":"m 910 972 b 1151 871 1002 973 1083 939 b 1233 747 1187 835 1214 793 b 1260 601 1252 700 1261 651 b 1233 457 1261 552 1252 504 b 1150 333 1214 410 1186 369 b 910 232 1081 265 1001 231 l 435 232 l 435 0 l 63 0 l 63 972 m 836 551 b 873 566 851 551 863 556 b 888 602 883 576 888 588 b 873 638 888 616 883 628 b 836 653 863 648 851 653 l 435 653 l 435 551 l 836 551 "},"Q":{"ha":1311,"x_min":0,"x_max":0,"o":"m 1164 136 b 1097 85 1144 118 1122 100 l 1279 -87 l 857 -87 l 800 -8 b 654 -15 755 -13 706 -15 b 144 138 416 -15 246 36 b 29 451 67 213 28 318 l 29 521 b 144 836 28 654 67 759 b 654 988 246 937 416 988 b 1094 890 845 988 992 955 b 1279 521 1218 813 1279 689 l 1279 451 b 1164 136 1280 318 1242 213 m 907 499 b 894 573 908 527 904 552 b 858 622 885 594 873 610 b 801 651 844 634 824 644 b 732 666 777 659 754 664 b 654 671 710 668 684 670 b 576 666 625 670 599 668 b 508 651 554 664 531 659 b 451 622 485 644 466 634 b 415 573 437 610 424 594 b 401 499 405 552 400 527 l 401 475 b 445 355 400 420 415 380 b 571 307 475 329 517 313 l 472 443 l 717 443 l 833 333 b 907 475 883 361 908 408 "},"R":{"ha":1301,"x_min":0,"x_max":0,"o":"m 1283 0 l 861 0 l 690 232 l 435 232 l 435 0 l 63 0 l 63 972 l 910 972 b 1151 871 1002 973 1083 939 b 1233 747 1187 835 1214 793 b 1260 601 1252 700 1261 651 b 1233 457 1261 552 1252 504 b 1150 333 1214 410 1186 369 b 1079 278 1129 311 1105 293 m 836 551 b 873 566 851 551 863 556 b 888 602 883 576 888 588 b 873 638 888 616 883 628 b 836 653 863 648 851 653 l 435 653 l 435 551 l 836 551 "},"S":{"ha":1253,"x_min":0,"x_max":0,"o":"m 626 726 b 562 724 604 726 583 726 b 491 715 541 723 517 720 b 427 689 465 709 443 701 b 403 646 411 677 403 663 b 421 627 403 638 409 632 b 478 615 433 622 452 618 b 547 608 505 611 528 609 b 633 603 567 606 595 605 l 635 603 b 1015 551 812 593 938 575 b 1219 326 1152 509 1220 434 b 1036 51 1219 199 1158 107 b 626 -15 939 7 802 -15 b 229 42 447 -15 314 4 b 32 325 113 94 47 188 l 31 336 l 399 336 l 403 331 b 626 244 432 273 507 244 b 684 247 645 244 664 245 b 756 257 704 249 728 252 b 823 282 783 262 806 270 b 849 326 840 294 849 309 b 830 346 849 334 842 340 b 772 358 817 351 798 356 b 703 365 745 361 722 363 b 618 369 683 366 655 368 l 617 371 b 236 421 440 380 313 397 b 32 646 100 463 32 538 b 217 921 32 774 94 865 b 626 988 313 965 450 988 b 747 985 672 988 712 987 b 860 974 781 983 819 979 b 968 951 902 968 938 960 b 1060 911 999 941 1029 928 b 1138 851 1091 894 1117 874 b 1190 764 1158 827 1175 798 b 1219 647 1205 730 1215 691 l 1221 636 l 853 636 l 850 642 b 626 726 820 698 746 726 "},"T":{"ha":1226,"x_min":0,"x_max":0,"o":"m 10 972 l 1217 972 l 1217 650 l 799 650 l 799 0 l 428 0 l 428 650 l 10 650 "},"U":{"ha":1343,"x_min":0,"x_max":0,"o":"m 924 972 l 1297 972 l 1297 451 b 1182 132 1297 316 1259 210 b 671 -24 1080 29 910 -23 b 161 132 433 -23 263 29 b 46 451 83 210 45 316 l 46 972 l 418 972 l 418 474 b 481 338 417 408 438 363 b 671 299 523 314 587 300 b 862 338 756 300 820 314 b 924 474 904 363 925 408 "},"V":{"ha":1349,"x_min":0,"x_max":0,"o":"m 942 972 l 1361 972 l 889 0 l 458 0 l -12 972 l 407 972 l 674 328 "},"W":{"ha":1811,"x_min":0,"x_max":0,"o":"m 1411 972 l 1819 972 l 1456 0 l 1054 0 l 906 397 l 757 0 l 356 0 l 347 21 l -8 972 l 400 972 l 556 471 l 713 972 l 1097 972 l 1254 471 "},"X":{"ha":1378,"x_min":0,"x_max":0,"o":"m 1383 972 l 929 486 l 1383 0 l 900 0 l 689 247 l 478 0 l -6 0 l 447 486 l -6 972 l 478 972 l 689 725 l 900 972 "},"Y":{"ha":1367,"x_min":0,"x_max":0,"o":"m 942 972 l 1386 972 l 869 332 l 869 0 l 497 0 l 497 332 l -19 972 l 425 972 l 683 638 "},"Z":{"ha":1200,"x_min":0,"x_max":0,"o":"m 1151 654 l 606 324 l 1151 324 l 1151 0 l 47 0 l 47 318 l 574 650 l 47 650 l 47 972 l 1151 972 "},"[":{"ha":719,"x_min":0,"x_max":0,"o":"m 390 821 l 390 144 l 676 144 l 676 -154 l 63 -154 l 63 1119 l 676 1119 l 676 821 "},"\\":{"ha":917,"x_min":0,"x_max":0,"o":"m 847 -50 l 472 -50 l 69 1015 l 443 1015 "},"]":{"ha":719,"x_min":0,"x_max":0,"o":"m 657 1119 l 657 -154 l 43 -154 l 43 144 l 329 144 l 329 821 l 43 821 l 43 1119 "},"^":{"ha":1114,"x_min":0,"x_max":0,"o":"m 1044 165 l 717 165 l 557 556 l 399 165 l 69 165 l 444 1047 l 550 1047 l 557 1065 l 565 1047 l 671 1047 "},"_":{"ha":1442,"x_min":0,"x_max":0,"o":"m 18 -268 l 18 8 l 1422 8 l 1422 -268 "},"a":{"ha":1353,"x_min":0,"x_max":0,"o":"m 885 972 l 1361 0 l 957 0 l 901 129 l 451 129 l 396 0 l -10 0 l 468 972 m 808 350 l 676 661 l 544 350 "},"b":{"ha":1251,"x_min":0,"x_max":0,"o":"m 1119 526 b 1198 425 1153 499 1179 465 b 1226 299 1217 385 1226 343 b 1140 88 1226 216 1197 146 b 929 0 1082 29 1012 0 l 63 0 l 63 972 l 863 972 b 1072 885 944 972 1014 943 b 1160 675 1131 828 1160 757 b 1119 526 1160 622 1146 573 m 433 650 l 435 650 l 435 596 l 783 596 b 803 604 791 596 797 599 b 811 624 808 610 811 616 b 803 644 811 632 808 639 b 783 653 797 650 791 653 l 433 653 m 850 324 b 869 331 857 324 864 326 b 876 350 874 336 876 343 b 869 369 876 357 874 364 b 850 378 864 375 857 378 l 435 378 l 435 324 "},"c":{"ha":1304,"x_min":0,"x_max":0,"o":"m 654 669 b 464 632 570 669 506 656 b 401 497 421 608 400 563 l 401 474 b 415 399 401 445 406 420 b 451 350 425 378 437 362 b 508 321 466 338 485 328 b 576 306 531 313 554 309 b 654 301 599 304 625 302 b 820 328 725 301 781 310 b 899 410 859 345 886 373 l 900 417 l 1279 417 l 1278 406 b 654 -15 1258 125 1050 -15 b 144 138 416 -15 246 36 b 29 451 67 213 28 318 l 29 521 b 214 890 28 689 90 813 b 654 988 318 954 464 987 b 1278 567 1050 987 1258 846 l 1279 556 l 900 556 l 899 563 b 819 644 885 600 858 627 b 654 669 781 661 725 669 "},"d":{"ha":1253,"x_min":0,"x_max":0,"o":"m 788 972 b 1083 851 902 974 1001 934 b 1190 687 1130 805 1165 750 b 1228 486 1215 623 1228 556 b 1190 285 1228 416 1215 349 b 1083 121 1165 222 1130 167 b 794 0 1002 40 906 0 l 788 0 l 63 0 l 63 972 l 788 972 m 722 322 b 820 371 765 322 797 338 b 854 486 843 403 854 442 b 820 601 854 531 843 569 b 722 650 797 634 765 650 l 435 650 l 435 322 l 722 322 "},"e":{"ha":1176,"x_min":0,"x_max":0,"o":"m 435 650 l 435 596 l 929 596 l 929 376 l 435 376 l 435 322 l 1131 322 l 1131 0 l 63 0 l 63 972 l 1129 972 l 1131 650 "},"f":{"ha":1140,"x_min":0,"x_max":0,"o":"m 435 650 l 435 596 l 929 596 l 929 376 l 435 376 l 435 0 l 63 0 l 63 972 l 1129 972 l 1131 650 "},"g":{"ha":1325,"x_min":0,"x_max":0,"o":"m 1279 543 l 1279 -15 l 907 -15 l 907 61 b 654 -15 841 10 757 -15 b 144 138 417 -15 247 36 b 29 451 67 213 28 318 l 29 521 b 214 890 28 689 90 813 b 654 988 318 954 464 987 b 1276 579 1044 987 1251 850 l 890 579 b 654 669 860 639 781 669 b 464 632 570 669 506 656 b 401 497 421 608 400 563 l 401 474 b 415 399 401 445 406 420 b 451 350 425 378 437 362 b 508 321 466 338 485 328 b 576 306 531 313 554 309 b 654 301 599 304 625 302 b 808 324 719 301 770 309 l 667 324 l 667 543 "},"h":{"ha":1356,"x_min":0,"x_max":0,"o":"m 921 972 l 1293 972 l 1293 0 l 921 0 l 921 376 l 435 376 l 435 0 l 63 0 l 63 972 l 435 972 l 435 596 l 921 596 "},"i":{"ha":497,"x_min":0,"x_max":0,"o":"m 63 0 l 63 972 l 435 972 l 435 0 "},"j":{"ha":1288,"x_min":0,"x_max":0,"o":"m 1242 972 l 1242 456 b 1057 82 1242 285 1180 161 b 615 -15 953 17 806 -15 b 326 22 500 -15 403 -3 b 132 138 248 47 184 86 b 17 456 54 214 16 320 l 17 581 l 389 581 l 389 478 b 440 342 388 411 405 366 b 615 304 475 319 534 306 b 807 343 700 306 764 319 b 869 478 850 367 870 412 l 869 651 l 658 651 l 658 972 "},"k":{"ha":1283,"x_min":0,"x_max":0,"o":"m 1288 972 l 810 486 l 1288 0 l 797 0 l 467 325 l 435 325 l 435 0 l 63 0 l 63 972 l 435 972 l 435 647 l 467 647 l 797 972 "},"l":{"ha":1149,"x_min":0,"x_max":0,"o":"m 435 322 l 1138 322 l 1138 0 l 63 0 l 63 972 l 435 972 "},"m":{"ha":1667,"x_min":0,"x_max":0,"o":"m 1154 972 l 1603 972 l 1603 0 l 1225 0 l 1225 442 l 928 0 l 738 0 l 440 442 l 440 0 l 63 0 l 63 972 l 513 972 l 833 525 "},"n":{"ha":1376,"x_min":0,"x_max":0,"o":"m 940 972 l 1314 972 l 1314 0 l 903 0 l 435 563 l 435 0 l 63 0 l 63 972 l 561 972 l 940 488 "},"o":{"ha":1310,"x_min":0,"x_max":0,"o":"m 1094 890 b 1279 521 1218 813 1279 689 l 1279 451 b 1164 136 1280 318 1242 213 b 654 -15 1062 35 892 -15 b 144 138 416 -15 246 36 b 29 451 67 213 28 318 l 29 521 b 144 836 28 654 67 759 b 654 988 246 937 416 988 b 1094 890 845 988 992 955 m 907 499 b 894 573 908 527 904 552 b 858 622 885 594 873 610 b 801 651 844 634 824 644 b 732 666 777 659 754 664 b 654 671 710 668 684 670 b 576 666 625 670 599 668 b 508 651 554 664 531 659 b 451 622 485 644 466 634 b 415 573 437 610 424 594 b 401 499 405 552 400 527 l 401 475 b 415 400 400 446 405 421 b 451 350 424 379 437 362 b 508 321 466 338 485 328 b 576 306 531 313 554 309 b 654 301 599 304 625 302 b 733 306 684 302 710 304 b 801 321 755 309 778 313 b 858 350 825 328 844 338 b 894 400 873 362 885 379 b 907 475 904 421 908 446 "},"p":{"ha":1278,"x_min":0,"x_max":0,"o":"m 910 972 b 1151 871 1002 973 1083 939 b 1233 747 1187 835 1214 793 b 1260 601 1252 700 1261 651 b 1233 457 1261 552 1252 504 b 1150 333 1214 410 1186 369 b 910 232 1081 265 1001 231 l 435 232 l 435 0 l 63 0 l 63 972 m 836 551 b 873 566 851 551 863 556 b 888 602 883 576 888 588 b 873 638 888 616 883 628 b 836 653 863 648 851 653 l 435 653 l 435 551 l 836 551 "},"q":{"ha":1311,"x_min":0,"x_max":0,"o":"m 1164 136 b 1097 85 1144 118 1122 100 l 1279 -87 l 857 -87 l 800 -8 b 654 -15 755 -13 706 -15 b 144 138 416 -15 246 36 b 29 451 67 213 28 318 l 29 521 b 144 836 28 654 67 759 b 654 988 246 937 416 988 b 1094 890 845 988 992 955 b 1279 521 1218 813 1279 689 l 1279 451 b 1164 136 1280 318 1242 213 m 907 499 b 894 573 908 527 904 552 b 858 622 885 594 873 610 b 801 651 844 634 824 644 b 732 666 777 659 754 664 b 654 671 710 668 684 670 b 576 666 625 670 599 668 b 508 651 554 664 531 659 b 451 622 485 644 466 634 b 415 573 437 610 424 594 b 401 499 405 552 400 527 l 401 475 b 445 355 400 420 415 380 b 571 307 475 329 517 313 l 472 443 l 717 443 l 833 333 b 907 475 883 361 908 408 "},"r":{"ha":1301,"x_min":0,"x_max":0,"o":"m 1283 0 l 861 0 l 690 232 l 435 232 l 435 0 l 63 0 l 63 972 l 910 972 b 1151 871 1002 973 1083 939 b 1233 747 1187 835 1214 793 b 1260 601 1252 700 1261 651 b 1233 457 1261 552 1252 504 b 1150 333 1214 410 1186 369 b 1079 278 1129 311 1105 293 m 836 551 b 873 566 851 551 863 556 b 888 602 883 576 888 588 b 873 638 888 616 883 628 b 836 653 863 648 851 653 l 435 653 l 435 551 l 836 551 "},"s":{"ha":1253,"x_min":0,"x_max":0,"o":"m 626 726 b 562 724 604 726 583 726 b 491 715 541 723 517 720 b 427 689 465 709 443 701 b 403 646 411 677 403 663 b 421 627 403 638 409 632 b 478 615 433 622 452 618 b 547 608 505 611 528 609 b 633 603 567 606 595 605 l 635 603 b 1015 551 812 593 938 575 b 1219 326 1152 509 1220 434 b 1036 51 1219 199 1158 107 b 626 -15 939 7 802 -15 b 229 42 447 -15 314 4 b 32 325 113 94 47 188 l 31 336 l 399 336 l 403 331 b 626 244 432 273 507 244 b 684 247 645 244 664 245 b 756 257 704 249 728 252 b 823 282 783 262 806 270 b 849 326 840 294 849 309 b 830 346 849 334 842 340 b 772 358 817 351 798 356 b 703 365 745 361 722 363 b 618 369 683 366 655 368 l 617 371 b 236 421 440 380 313 397 b 32 646 100 463 32 538 b 217 921 32 774 94 865 b 626 988 313 965 450 988 b 747 985 672 988 712 987 b 860 974 781 983 819 979 b 968 951 902 968 938 960 b 1060 911 999 941 1029 928 b 1138 851 1091 894 1117 874 b 1190 764 1158 827 1175 798 b 1219 647 1205 730 1215 691 l 1221 636 l 853 636 l 850 642 b 626 726 820 698 746 726 "},"t":{"ha":1226,"x_min":0,"x_max":0,"o":"m 10 972 l 1217 972 l 1217 650 l 799 650 l 799 0 l 428 0 l 428 650 l 10 650 "},"u":{"ha":1343,"x_min":0,"x_max":0,"o":"m 924 972 l 1297 972 l 1297 451 b 1182 132 1297 316 1259 210 b 671 -24 1080 29 910 -23 b 161 132 433 -23 263 29 b 46 451 83 210 45 316 l 46 972 l 418 972 l 418 474 b 481 338 417 408 438 363 b 671 299 523 314 587 300 b 862 338 756 300 820 314 b 924 474 904 363 925 408 "},"v":{"ha":1349,"x_min":0,"x_max":0,"o":"m 942 972 l 1361 972 l 889 0 l 458 0 l -12 972 l 407 972 l 674 328 "},"w":{"ha":1811,"x_min":0,"x_max":0,"o":"m 1411 972 l 1819 972 l 1456 0 l 1054 0 l 906 397 l 757 0 l 356 0 l 347 21 l -8 972 l 400 972 l 556 471 l 713 972 l 1097 972 l 1254 471 "},"x":{"ha":1378,"x_min":0,"x_max":0,"o":"m 1383 972 l 929 486 l 1383 0 l 900 0 l 689 247 l 478 0 l -6 0 l 447 486 l -6 972 l 478 972 l 689 725 l 900 972 "},"y":{"ha":1367,"x_min":0,"x_max":0,"o":"m 942 972 l 1386 972 l 869 332 l 869 0 l 497 0 l 497 332 l -19 972 l 425 972 l 683 638 "},"z":{"ha":1200,"x_min":0,"x_max":0,"o":"m 1151 654 l 606 324 l 1151 324 l 1151 0 l 47 0 l 47 318 l 574 650 l 47 650 l 47 972 l 1151 972 "},"{":{"ha":851,"x_min":0,"x_max":0,"o":"m 543 690 b 479 528 543 626 522 572 b 390 469 453 500 424 481 b 479 413 424 458 453 439 b 543 249 522 367 543 313 b 572 174 543 220 553 195 b 642 143 592 153 615 143 l 807 143 l 807 -156 l 576 -156 l 574 -156 b 358 -64 491 -156 419 -125 b 284 48 326 -31 301 6 b 258 179 267 90 258 134 l 258 226 b 222 317 258 263 246 293 b 138 354 199 342 171 354 l 39 354 l 39 585 l 138 585 b 222 621 171 585 199 597 b 258 714 246 647 258 678 l 258 760 b 284 892 258 805 267 849 b 358 1004 301 934 326 972 b 576 1094 421 1066 494 1096 l 807 1094 l 807 796 l 642 796 b 572 765 615 796 592 786 b 543 690 553 745 543 720 "},"|":{"ha":497,"x_min":0,"x_max":0,"o":"m 63 -154 l 63 1119 l 435 1119 l 435 -154 "},"}":{"ha":851,"x_min":0,"x_max":0,"o":"m 813 585 l 813 354 l 714 354 b 628 317 681 354 652 342 b 593 226 605 292 593 262 l 593 179 b 567 47 593 134 584 90 b 493 -64 550 5 525 -32 b 278 -156 432 -125 360 -156 l 275 -156 l 44 -156 l 44 143 l 208 143 b 279 174 236 143 260 153 b 308 249 299 195 308 220 b 372 413 308 313 330 367 b 460 469 398 439 427 458 b 372 528 427 481 398 500 b 308 690 330 572 308 626 b 279 765 308 720 299 745 b 208 796 260 786 236 796 l 44 796 l 44 1094 l 275 1094 b 493 1004 358 1096 431 1066 b 567 892 525 972 550 934 b 593 760 584 849 593 805 l 593 714 b 628 621 593 678 605 647 b 714 585 652 597 681 585 "},"~":{"ha":1143,"x_min":0,"x_max":0,"o":"m 1096 522 b 1000 269 1101 412 1069 328 b 801 204 948 226 882 204 b 681 219 762 204 722 209 b 517 275 641 230 586 248 l 515 275 b 485 289 508 279 498 283 b 347 332 415 318 369 332 l 344 332 b 340 299 342 324 340 313 l 336 208 l 50 208 l 46 297 b 146 547 41 405 75 488 b 347 615 200 593 268 615 b 467 599 389 615 429 610 b 626 542 506 589 559 569 l 633 539 b 797 489 715 506 769 490 b 800 519 799 496 800 506 l 803 610 l 1090 610 l 1096 522 "}," ":{"ha":683,"x_min":0,"x_max":0,"o":""},"¡":{"ha":454,"x_min":0,"x_max":0,"o":"m 126 465 b 88 481 112 465 99 471 b 72 521 78 492 72 505 l 72 710 b 88 748 72 725 78 737 b 126 764 99 759 112 764 l 326 764 b 365 748 341 764 354 759 b 382 710 376 737 382 725 l 382 521 b 365 481 382 505 376 492 b 326 465 354 471 341 465 m 410 -247 b 396 -285 411 -262 406 -275 b 358 -300 386 -295 373 -300 l 94 -300 b 57 -285 80 -300 67 -295 b 43 -247 47 -275 42 -262 l 69 336 b 85 371 70 350 76 362 b 121 385 95 380 107 385 l 332 385 b 368 371 346 385 358 380 b 383 336 378 362 383 350 "},"¢":{"ha":804,"x_min":0,"x_max":0,"o":"m 689 385 l 751 122 l 694 89 b 586 47 664 71 628 57 l 586 -111 l 325 -111 l 325 53 b 147 167 255 74 195 112 l 146 168 b 49 471 81 245 49 346 b 123 737 49 573 73 661 b 325 896 172 812 240 865 l 325 1063 l 586 1063 l 586 910 b 690 872 625 901 660 889 l 751 839 l 672 560 l 572 624 b 478 646 549 638 518 646 b 380 596 435 646 403 629 b 346 476 357 563 346 523 b 376 358 346 430 356 391 b 472 310 397 326 429 310 b 590 338 513 310 552 319 "},"£":{"ha":846,"x_min":0,"x_max":0,"o":"m 797 192 l 797 -90 l 51 -90 l 51 124 l 99 149 b 178 222 132 166 159 191 b 208 324 198 254 208 288 l 208 338 l 60 338 l 60 606 l 175 606 b 172 674 173 630 172 652 b 272 940 172 781 205 870 b 524 1044 338 1009 422 1044 b 722 994 604 1044 670 1028 l 776 958 l 700 690 l 601 749 b 524 765 582 760 556 765 b 503 763 515 765 509 765 b 485 753 498 762 492 759 b 467 725 477 748 472 739 b 461 672 463 711 461 694 b 465 606 461 650 463 628 l 675 606 l 675 338 l 492 338 b 481 243 492 303 488 272 b 465 192 477 225 472 208 "},"¥":{"ha":954,"x_min":0,"x_max":0,"o":"m 699 582 l 821 582 l 821 347 l 607 347 l 607 313 l 821 313 l 821 79 l 607 79 l 607 -83 l 332 -83 l 332 79 l 119 79 l 119 313 l 332 313 l 332 347 l 119 347 l 119 582 l 244 582 l 14 1021 l 326 1021 l 475 710 l 632 1021 l 944 1021 "},"§":{"ha":806,"x_min":0,"x_max":0,"o":"m 754 428 b 688 244 754 359 732 298 b 717 125 707 207 717 168 b 688 -5 717 77 707 34 b 609 -97 668 -43 642 -74 b 501 -150 576 -120 540 -138 b 381 -168 463 -162 422 -168 b 119 -90 272 -168 185 -142 l 74 -56 l 164 171 l 243 111 b 379 68 283 82 328 68 b 457 111 431 68 457 82 b 453 131 457 119 456 126 b 422 155 451 136 441 144 b 340 190 404 166 376 177 b 289 210 318 199 301 205 b 236 233 277 214 259 222 b 180 263 213 243 194 253 b 131 302 166 273 149 286 b 89 352 113 318 99 335 b 63 414 79 369 70 390 b 51 490 55 438 51 463 b 126 674 51 558 76 619 b 101 781 111 708 102 744 l 101 782 b 199 989 101 866 134 935 b 431 1064 260 1039 337 1064 b 658 1006 516 1064 592 1044 l 711 974 l 631 742 l 550 794 b 426 829 515 818 474 829 b 378 819 407 829 391 826 b 358 797 365 813 358 806 b 374 774 358 789 363 781 b 479 729 390 763 425 748 b 581 687 518 715 552 701 b 666 631 609 672 638 654 b 731 544 694 607 716 579 b 754 428 747 510 754 471 m 501 397 b 503 411 502 402 503 406 b 501 428 503 418 502 423 b 481 449 499 432 493 439 b 429 475 469 458 451 467 b 397 488 423 478 412 482 b 303 526 355 504 323 517 b 300 507 301 521 300 514 b 396 439 300 487 332 464 b 501 397 443 422 478 408 "},"©":{"ha":1279,"x_min":0,"x_max":0,"o":"m 1126 807 b 1228 501 1194 725 1228 624 l 1228 429 b 1026 36 1228 253 1161 122 b 890 -28 984 8 938 -13 b 640 -67 812 -54 728 -67 b 389 -28 551 -67 468 -54 b 304 6 359 -19 331 -7 b 216 63 277 19 248 38 b 133 148 184 88 156 116 b 75 269 110 180 91 220 b 51 429 59 317 51 371 l 51 501 b 253 894 51 677 119 808 b 389 960 294 921 340 943 b 640 997 470 985 554 997 b 890 960 725 997 809 985 b 1126 807 990 926 1069 875 m 960 176 b 1090 429 1047 231 1090 315 l 1090 506 b 1088 538 1089 519 1089 529 b 1083 578 1088 547 1086 560 b 1069 626 1079 597 1075 612 b 1044 674 1064 639 1055 655 b 1002 724 1032 693 1018 710 b 940 767 986 739 965 753 b 853 804 914 782 885 794 b 640 838 785 826 714 838 b 426 804 566 838 495 826 l 425 804 l 424 804 b 319 754 386 791 351 775 b 189 501 232 700 189 615 l 189 425 b 190 393 189 412 189 401 b 196 353 190 385 192 371 b 210 305 200 334 204 318 b 235 257 215 291 224 275 b 277 208 247 238 261 222 b 340 164 293 193 314 179 b 426 126 365 149 394 137 b 640 93 494 104 565 93 b 853 126 714 93 785 104 l 854 126 b 960 176 893 139 928 156 m 640 569 b 599 567 626 569 613 569 b 555 555 586 565 571 561 b 515 524 539 549 525 539 b 500 472 505 510 500 493 l 500 458 b 546 381 500 423 515 397 b 640 361 572 368 603 361 b 772 422 712 361 756 381 l 775 429 l 997 429 l 996 417 b 874 222 987 330 946 265 b 790 186 848 207 820 195 b 640 165 738 172 688 165 b 489 186 592 165 542 172 b 417 217 463 194 439 205 b 351 265 394 230 373 246 b 301 341 330 285 313 310 b 283 446 289 372 283 407 l 283 486 b 407 708 283 586 325 660 b 489 744 432 723 459 735 b 640 765 542 758 592 765 b 790 744 688 765 738 758 b 926 667 844 729 889 703 b 996 514 965 630 988 579 l 997 501 l 775 501 l 772 508 b 735 550 765 528 752 542 b 640 569 707 563 675 569 "},"ª":{"ha":563,"x_min":0,"x_max":0,"o":"m 513 342 l 344 342 l 342 364 b 232 335 307 344 271 335 b 100 385 178 335 134 352 b 49 514 66 419 49 462 b 103 643 49 565 67 608 b 317 719 150 689 221 715 b 264 742 307 734 290 742 b 174 713 227 742 197 732 l 126 675 l 75 821 l 99 840 b 281 896 149 877 209 896 b 441 833 350 896 403 875 b 497 651 478 791 497 730 l 497 496 b 504 390 497 458 500 423 m 326 575 b 233 547 279 571 248 562 b 222 519 226 540 222 531 b 260 488 222 498 235 488 b 318 519 284 488 303 498 b 326 538 323 528 325 534 "},"«":{"ha":722,"x_min":0,"x_max":0,"o":"m 469 363 l 685 50 l 474 50 l 261 363 l 474 676 l 685 676 m 244 363 l 460 50 l 249 50 l 36 363 l 249 676 l 460 676 "},"­":{"ha":0,"x_min":0,"x_max":0,"o":""},"®":{"ha":693,"x_min":0,"x_max":0,"o":"m 501 842 b 454 753 501 802 486 772 l 507 678 l 400 678 l 360 740 l 289 740 l 289 678 l 190 678 l 190 944 l 410 944 b 474 914 435 944 456 934 b 501 842 492 894 501 869 m 388 826 b 403 842 398 826 403 831 b 388 858 403 853 398 858 l 289 858 l 289 826 l 388 826 m 593 990 b 644 831 627 948 644 894 l 644 792 b 543 586 644 699 611 631 b 474 551 521 571 498 560 b 346 532 434 538 391 532 b 218 551 301 532 259 538 b 165 576 200 558 182 566 b 110 619 147 587 129 601 b 64 690 90 637 75 661 b 47 792 53 720 47 754 l 47 831 b 150 1036 47 922 81 991 b 218 1069 171 1050 194 1061 b 346 1090 260 1083 302 1090 b 474 1069 389 1090 432 1083 b 593 990 525 1053 564 1026 m 508 658 b 575 792 553 687 575 731 l 575 832 b 454 989 573 911 533 963 b 347 1006 420 1000 384 1006 b 238 989 309 1006 273 1000 l 236 989 b 183 963 217 982 199 974 b 117 831 139 934 117 890 l 117 790 b 238 633 119 712 159 659 b 346 615 272 621 308 615 b 454 633 384 615 420 621 l 456 633 b 508 658 475 640 493 648 "},"°":{"ha":474,"x_min":0,"x_max":0,"o":"m 238 1001 b 377 941 296 1001 342 981 b 429 803 412 901 429 855 b 370 654 429 742 409 692 b 235 597 331 616 286 597 b 99 654 180 597 135 616 b 44 796 63 692 44 739 b 103 944 44 855 63 905 b 238 1001 140 982 185 1001 m 236 686 b 306 719 264 686 287 697 b 333 801 324 742 333 769 b 310 876 333 827 326 852 b 236 913 295 900 270 913 b 165 877 206 913 183 901 b 139 796 148 853 139 826 b 167 718 139 765 148 739 b 236 686 186 697 209 686 "},"²":{"ha":561,"x_min":0,"x_max":0,"o":"m 353 781 b 283 751 318 769 294 760 l 507 751 l 507 610 l 46 610 l 46 692 b 61 751 46 713 51 733 b 96 794 71 769 83 783 b 151 828 109 806 127 817 b 207 851 174 839 193 847 b 264 869 221 856 240 862 l 265 869 l 303 882 b 332 893 311 885 321 888 b 356 906 343 898 351 902 b 364 919 361 910 364 915 b 294 949 364 939 341 949 b 210 925 250 949 222 941 b 201 901 204 919 201 911 l 201 896 l 51 896 l 51 900 b 118 1056 51 974 74 1026 b 288 1090 154 1079 211 1090 b 453 1056 362 1090 417 1079 b 514 932 494 1030 514 988 b 502 878 514 913 510 895 b 476 840 494 862 485 850 b 435 813 466 831 453 822 b 394 794 418 804 405 798 b 353 781 384 791 370 786 "},"³":{"ha":618,"x_min":0,"x_max":0,"o":"m 513 844 b 572 743 552 820 572 787 b 503 633 572 694 549 657 b 315 599 460 610 398 599 b 122 633 226 599 162 610 b 46 788 71 662 46 713 l 46 792 l 214 792 l 214 788 b 240 751 214 769 223 757 b 313 744 252 747 276 744 l 322 744 b 403 775 376 744 403 755 b 399 789 403 781 402 786 b 383 796 397 792 392 794 b 271 799 371 798 334 799 l 263 799 l 263 889 l 267 889 b 383 893 331 889 369 890 b 403 914 396 896 403 903 b 397 928 403 919 401 924 b 322 944 387 939 362 944 l 313 944 b 236 935 276 944 251 941 b 214 901 221 930 214 919 l 214 896 l 46 896 l 46 901 b 121 1054 46 975 71 1025 b 315 1090 162 1078 226 1090 b 503 1056 398 1090 460 1079 b 572 944 549 1031 572 994 b 513 844 572 901 552 868 "},"·":{"ha":385,"x_min":0,"x_max":0,"o":"m 342 379 b 300 268 342 335 328 298 b 192 221 271 237 235 221 b 88 264 150 221 115 235 b 43 381 57 294 42 333 b 86 492 43 425 57 462 b 193 538 115 522 150 538 b 298 493 235 538 270 523 b 342 381 326 463 341 426 "},"¹":{"ha":354,"x_min":0,"x_max":0,"o":"m 308 751 l 308 608 l 68 608 l 68 751 l 99 751 l 99 921 l 44 906 l 44 1050 l 122 1079 l 279 1079 l 279 751 "},"º":{"ha":671,"x_min":0,"x_max":0,"o":"m 546 832 b 622 618 597 775 622 704 b 578 449 621 553 606 497 b 471 342 549 400 513 365 b 335 308 428 320 383 308 b 129 396 251 308 183 338 b 49 611 75 453 49 525 b 139 842 49 706 79 782 b 338 922 194 895 260 922 b 546 832 423 922 492 892 m 336 517 b 379 547 355 517 369 527 b 394 615 389 566 394 589 b 390 653 394 626 393 639 b 372 694 388 667 381 680 b 335 714 362 707 350 714 b 298 694 320 714 308 707 b 280 653 288 680 282 667 b 276 614 278 639 276 626 b 294 545 276 587 282 564 b 336 517 305 526 319 517 "},"»":{"ha":722,"x_min":0,"x_max":0,"o":"m 685 363 l 472 50 l 261 50 l 478 363 l 261 676 l 472 676 m 460 363 l 247 50 l 36 50 l 253 363 l 36 676 l 247 676 "},"¿":{"ha":967,"x_min":0,"x_max":0,"o":"m 381 592 b 344 607 367 592 355 597 b 329 643 334 617 329 629 l 329 793 b 344 829 329 807 334 819 b 381 844 355 839 367 844 l 569 844 b 606 829 583 844 595 839 b 621 793 616 819 621 807 l 621 643 b 606 607 621 629 616 617 b 569 592 595 597 583 592 m 896 128 b 897 103 897 122 897 114 b 847 -115 897 7 881 -65 b 757 -192 828 -146 798 -171 b 596 -221 717 -211 663 -221 l 338 -221 b 204 -201 286 -221 241 -214 b 117 -153 167 -188 138 -172 b 66 -79 95 -133 78 -109 b 42 7 53 -50 45 -21 b 36 103 38 35 36 67 b 46 181 36 132 39 159 b 67 235 52 204 59 222 b 103 270 75 248 87 259 b 143 292 120 281 133 288 b 189 308 153 297 169 302 l 190 310 b 246 331 213 317 232 324 b 288 360 260 338 274 348 b 319 410 303 373 313 390 b 329 486 326 431 329 456 l 329 496 l 621 496 l 621 486 b 611 385 621 449 618 415 b 587 308 605 354 597 328 b 547 251 577 287 564 268 b 503 210 531 234 516 220 b 453 183 490 201 473 192 b 406 167 432 175 417 169 b 364 156 396 164 381 160 b 298 132 334 147 312 139 b 276 103 284 125 276 115 b 296 54 276 78 283 62 b 381 40 311 45 339 40 l 553 40 b 638 53 594 40 623 44 b 657 103 650 60 657 77 l 657 136 l 896 136 l 896 128 "},"À":{"ha":1344,"x_min":0,"x_max":0,"o":"m 267 1331 b 275 1345 266 1336 269 1341 b 300 1351 281 1349 290 1351 l 658 1351 b 683 1345 668 1351 676 1349 b 690 1331 690 1341 692 1336 l 814 1060 b 781 1043 811 1049 800 1043 l 543 1043 b 510 1060 524 1043 513 1049 m 1357 -10 l 953 -10 l 897 119 l 447 119 l 392 -10 l -14 -10 l 464 963 l 881 963 m 804 340 l 672 651 l 540 340 "},"Á":{"ha":1344,"x_min":0,"x_max":0,"o":"m 564 1043 b 531 1060 544 1043 533 1049 l 653 1331 b 661 1345 652 1336 655 1341 b 686 1351 668 1349 676 1351 l 1044 1351 b 1069 1345 1054 1351 1062 1349 b 1076 1331 1076 1341 1078 1336 l 835 1060 b 801 1043 832 1049 821 1043 l 564 1043 m 881 963 l 1357 -10 l 953 -10 l 897 119 l 447 119 l 392 -10 l -14 -10 l 464 963 m 804 340 l 672 651 l 540 340 "},"Â":{"ha":1344,"x_min":0,"x_max":0,"o":"m 588 1043 l 274 1043 l 579 1343 l 665 1343 l 672 1349 l 678 1343 l 765 1343 l 1071 1043 l 756 1043 l 672 1129 m 881 963 l 1357 -10 l 953 -10 l 897 119 l 447 119 l 392 -10 l -14 -10 l 464 963 m 804 340 l 672 651 l 540 340 "},"Ã":{"ha":1344,"x_min":0,"x_max":0,"o":"m 881 963 l 1357 -10 l 953 -10 l 897 119 l 447 119 l 392 -10 l -14 -10 l 464 963 m 804 340 l 672 651 l 540 340 m 386 1114 b 440 1301 383 1194 401 1256 b 550 1351 470 1335 506 1351 b 616 1340 573 1351 595 1347 b 701 1297 637 1332 665 1318 l 706 1294 b 794 1257 750 1270 780 1258 b 796 1279 795 1263 796 1271 l 797 1349 l 954 1349 l 957 1282 b 906 1092 960 1199 943 1135 b 797 1043 877 1059 841 1043 b 732 1054 776 1043 754 1047 b 643 1096 710 1062 680 1075 l 642 1096 b 625 1106 638 1099 632 1102 b 550 1139 587 1128 562 1139 l 549 1139 b 546 1114 548 1133 547 1125 l 544 1046 l 389 1046 "},"Ä":{"ha":1344,"x_min":0,"x_max":0,"o":"m 881 963 l 1357 -10 l 953 -10 l 897 119 l 447 119 l 392 -10 l -14 -10 l 464 963 m 804 340 l 672 651 l 540 340 m 439 1043 b 424 1049 433 1043 428 1045 b 417 1064 419 1053 417 1058 l 417 1247 b 424 1262 417 1253 419 1258 b 439 1268 428 1266 433 1268 l 614 1268 b 628 1262 619 1268 624 1266 b 635 1247 633 1258 635 1253 l 635 1064 b 628 1049 635 1058 633 1053 b 614 1043 624 1045 619 1043 m 731 1043 b 715 1049 724 1043 719 1045 b 708 1064 710 1053 708 1058 l 708 1247 b 715 1262 708 1253 710 1258 b 731 1268 719 1266 724 1268 l 906 1268 b 920 1262 911 1268 916 1266 b 926 1247 924 1258 926 1253 l 926 1064 b 920 1049 926 1058 924 1053 b 906 1043 916 1045 911 1043 "},"Å":{"ha":1342,"x_min":0,"x_max":0,"o":"m 1356 -10 l 951 -10 l 896 119 l 446 119 l 390 -10 l -15 -10 l 463 963 l 671 963 b 491 1037 600 963 541 987 b 417 1217 441 1086 417 1146 b 491 1397 417 1287 441 1347 b 671 1472 541 1447 600 1472 b 851 1397 741 1472 801 1447 b 925 1217 900 1347 925 1287 b 851 1037 925 1146 900 1086 b 671 963 801 987 741 963 l 879 963 m 578 1217 b 605 1151 578 1192 587 1170 b 671 1124 623 1133 645 1124 b 737 1151 697 1124 719 1133 b 764 1217 755 1170 764 1192 b 737 1283 764 1243 755 1265 b 671 1311 719 1302 697 1311 b 605 1283 645 1311 623 1302 b 578 1217 587 1265 578 1243 m 803 340 l 671 651 l 539 340 "},"Æ":{"ha":1785,"x_min":0,"x_max":0,"o":"m 1043 313 l 1738 313 l 1738 -10 l 671 -10 l 671 119 l 447 119 l 392 -10 l -14 -10 l 464 963 l 1738 963 l 1738 640 l 1043 640 l 1043 586 l 1536 586 l 1536 367 l 1043 367 m 671 340 l 671 647 l 540 340 "},"Ç":{"ha":1306,"x_min":0,"x_max":0,"o":"m 900 407 l 1279 407 l 1278 396 b 700 -25 1259 126 1067 -14 l 686 -54 b 722 -81 700 -62 712 -70 b 765 -199 752 -109 766 -149 l 765 -225 b 696 -364 766 -288 743 -334 b 531 -400 657 -388 602 -400 l 521 -400 b 379 -372 463 -399 415 -390 l 440 -244 b 531 -281 450 -269 481 -281 b 581 -275 551 -281 568 -279 b 625 -215 611 -268 626 -248 l 625 -207 b 624 -186 625 -200 625 -193 b 531 -142 615 -157 584 -143 b 488 -146 513 -142 499 -143 l 546 -24 l 546 -21 b 144 128 364 -7 231 43 b 29 443 67 204 28 309 l 29 511 b 214 881 28 680 90 803 b 654 978 318 945 464 978 b 1278 557 1050 977 1258 837 l 1279 546 l 900 546 l 899 553 b 819 634 885 590 858 617 b 654 660 781 651 725 660 b 464 622 570 659 506 646 b 401 488 421 598 400 553 l 401 465 b 415 390 401 437 406 412 b 451 340 425 369 437 352 b 508 311 466 328 485 319 b 576 297 531 304 554 299 b 654 292 599 294 625 293 b 820 318 725 292 781 300 b 899 400 859 336 886 363 "},"È":{"ha":1176,"x_min":0,"x_max":0,"o":"m 435 313 l 1131 313 l 1131 -10 l 63 -10 l 63 963 l 1129 963 l 1131 640 l 435 640 l 435 586 l 929 586 l 929 367 l 435 367 m 215 1331 b 223 1345 213 1336 216 1341 b 247 1351 230 1349 238 1351 l 606 1351 b 631 1345 616 1351 624 1349 b 639 1331 637 1341 640 1336 l 761 1060 b 728 1043 758 1049 747 1043 l 490 1043 b 457 1060 471 1043 460 1049 "},"É":{"ha":1176,"x_min":0,"x_max":0,"o":"m 435 313 l 1131 313 l 1131 -10 l 63 -10 l 63 963 l 1129 963 l 1131 640 l 435 640 l 435 586 l 929 586 l 929 367 l 435 367 m 536 1043 b 504 1060 517 1043 506 1049 l 626 1331 b 635 1345 625 1336 628 1341 b 660 1351 641 1349 650 1351 l 1017 1351 b 1042 1345 1027 1351 1035 1349 b 1050 1331 1048 1341 1051 1336 l 807 1060 b 774 1043 805 1049 794 1043 l 536 1043 "},"Ê":{"ha":1176,"x_min":0,"x_max":0,"o":"m 435 313 l 1131 313 l 1131 -10 l 63 -10 l 63 963 l 1129 963 l 1131 640 l 435 640 l 435 586 l 929 586 l 929 367 l 435 367 m 513 1043 l 199 1043 l 503 1343 l 590 1343 l 596 1349 l 603 1343 l 689 1343 l 994 1043 l 681 1043 l 596 1129 "},"Ë":{"ha":1176,"x_min":0,"x_max":0,"o":"m 364 1043 b 348 1049 357 1043 352 1045 b 342 1064 344 1053 342 1058 l 342 1247 b 348 1262 342 1253 344 1258 b 364 1268 352 1266 357 1268 l 538 1268 b 553 1262 544 1268 549 1266 b 560 1247 558 1258 560 1253 l 560 1064 b 553 1049 560 1058 558 1053 b 538 1043 549 1045 544 1043 m 654 1043 b 640 1049 649 1043 644 1045 b 633 1064 635 1053 633 1058 l 633 1247 b 640 1262 633 1253 635 1258 b 654 1268 644 1266 649 1268 l 829 1268 b 845 1262 836 1268 841 1266 b 851 1247 849 1258 851 1253 l 851 1064 b 845 1049 851 1058 849 1053 b 829 1043 841 1045 836 1043 m 435 313 l 1131 313 l 1131 -10 l 63 -10 l 63 963 l 1129 963 l 1131 640 l 435 640 l 435 586 l 929 586 l 929 367 l 435 367 "},"Ì":{"ha":497,"x_min":0,"x_max":0,"o":"m 63 -10 l 63 963 l 435 963 l 435 -10 m 132 1043 b 99 1060 112 1043 100 1049 l -144 1331 b -136 1345 -145 1336 -143 1341 b -111 1351 -130 1349 -121 1351 l 246 1351 b 272 1345 256 1351 265 1349 b 279 1331 278 1341 281 1336 l 401 1060 b 369 1043 400 1049 389 1043 l 132 1043 "},"Í":{"ha":499,"x_min":0,"x_max":0,"o":"m 63 -10 l 63 963 l 435 963 l 435 -10 m 600 1351 b 625 1345 610 1351 619 1349 b 633 1331 631 1341 634 1336 l 390 1060 b 357 1043 388 1049 377 1043 l 119 1043 b 88 1060 100 1043 89 1049 l 210 1331 b 218 1345 209 1336 212 1341 b 243 1351 225 1349 233 1351 l 600 1351 "},"Î":{"ha":497,"x_min":0,"x_max":0,"o":"m 63 -10 l 63 963 l 435 963 l 435 -10 m 164 1043 l -150 1043 l 156 1343 l 242 1343 l 249 1349 l 254 1343 l 342 1343 l 647 1043 l 332 1043 l 249 1129 "},"Ï":{"ha":496,"x_min":0,"x_max":0,"o":"m 14 1043 b -1 1049 8 1043 3 1045 b -7 1064 -5 1053 -7 1058 l -7 1247 b -1 1262 -7 1253 -5 1258 b 14 1268 3 1266 8 1268 l 189 1268 b 205 1262 195 1268 201 1266 b 211 1247 209 1258 211 1253 l 211 1064 b 205 1049 211 1058 209 1053 b 189 1043 201 1045 195 1043 m 306 1043 b 291 1049 300 1043 295 1045 b 285 1064 287 1053 285 1058 l 285 1247 b 291 1262 285 1253 287 1258 b 306 1268 295 1266 300 1268 l 481 1268 b 495 1262 486 1268 491 1266 b 501 1247 499 1258 501 1253 l 501 1064 b 495 1049 501 1058 499 1053 b 481 1043 491 1045 486 1043 m 61 -10 l 61 963 l 433 963 l 433 -10 "},"Ñ":{"ha":1376,"x_min":0,"x_max":0,"o":"m 1314 963 l 1314 -10 l 903 -10 l 435 553 l 435 -10 l 63 -10 l 63 963 l 561 963 l 940 478 l 940 963 m 403 1114 b 457 1301 400 1194 418 1256 b 567 1351 487 1335 523 1351 b 631 1340 589 1351 610 1347 b 718 1297 652 1332 681 1318 l 722 1294 b 811 1257 767 1270 796 1258 b 813 1279 812 1263 813 1271 l 814 1349 l 971 1349 l 974 1282 b 921 1092 976 1199 959 1135 b 814 1043 893 1059 857 1043 b 748 1054 792 1043 770 1047 b 658 1096 726 1062 696 1075 b 642 1106 654 1099 648 1102 b 567 1139 604 1128 579 1139 l 565 1139 b 563 1114 563 1133 563 1125 l 561 1046 l 406 1046 "},"Ò":{"ha":1310,"x_min":0,"x_max":0,"o":"m 1094 881 b 1279 511 1218 803 1279 680 l 1279 443 b 1164 128 1280 309 1242 204 b 654 -25 1062 26 892 -25 b 144 128 416 -25 246 26 b 29 443 67 204 28 309 l 29 511 b 144 826 28 644 67 750 b 654 978 246 927 416 978 b 1094 881 845 978 992 945 m 907 489 b 894 563 908 518 904 542 b 858 613 885 584 873 600 b 801 642 844 625 824 634 b 732 656 777 649 754 654 b 654 661 710 659 684 660 b 576 656 625 660 599 659 b 508 642 554 654 531 649 b 451 613 485 634 466 625 b 415 563 437 600 424 584 b 401 489 405 542 400 518 l 401 465 b 415 390 400 437 405 412 b 451 340 424 369 437 352 b 508 311 466 328 485 319 b 576 297 531 304 554 299 b 654 292 599 294 625 293 b 733 297 684 293 710 294 b 801 311 755 299 778 304 b 858 340 825 319 844 328 b 894 390 873 352 885 369 b 907 465 904 412 908 437 m 256 1331 b 264 1345 255 1336 257 1341 b 289 1351 270 1349 279 1351 l 646 1351 b 671 1345 656 1351 664 1349 b 679 1331 677 1341 680 1336 l 801 1060 b 768 1043 800 1049 788 1043 l 531 1043 b 499 1060 511 1043 500 1049 "},"Ó":{"ha":1310,"x_min":0,"x_max":0,"o":"m 1094 881 b 1279 511 1218 803 1279 680 l 1279 443 b 1164 128 1280 309 1242 204 b 654 -25 1062 26 892 -25 b 144 128 416 -25 246 26 b 29 443 67 204 28 309 l 29 511 b 144 826 28 644 67 750 b 654 978 246 927 416 978 b 1094 881 845 978 992 945 m 907 489 b 894 563 908 518 904 542 b 858 613 885 584 873 600 b 801 642 844 625 824 634 b 732 656 777 649 754 654 b 654 661 710 659 684 660 b 576 656 625 660 599 659 b 508 642 554 654 531 649 b 451 613 485 634 466 625 b 415 563 437 600 424 584 b 401 489 405 542 400 518 l 401 465 b 415 390 400 437 405 412 b 451 340 424 369 437 352 b 508 311 466 328 485 319 b 576 297 531 304 554 299 b 654 292 599 294 625 293 b 733 297 684 293 710 294 b 801 311 755 299 778 304 b 858 340 825 319 844 328 b 894 390 873 352 885 369 b 907 465 904 412 908 437 m 589 1043 b 556 1060 569 1043 557 1049 l 678 1331 b 686 1345 677 1336 680 1341 b 711 1351 693 1349 701 1351 l 1068 1351 b 1093 1345 1078 1351 1087 1349 b 1101 1331 1100 1341 1102 1336 l 858 1060 b 826 1043 856 1049 846 1043 l 589 1043 "},"Ô":{"ha":1310,"x_min":0,"x_max":0,"o":"m 1094 881 b 1279 511 1218 803 1279 680 l 1279 443 b 1164 128 1280 309 1242 204 b 654 -25 1062 26 892 -25 b 144 128 416 -25 246 26 b 29 443 67 204 28 309 l 29 511 b 144 826 28 644 67 750 b 654 978 246 927 416 978 b 1094 881 845 978 992 945 m 907 489 b 894 563 908 518 904 542 b 858 613 885 584 873 600 b 801 642 844 625 824 634 b 732 656 777 649 754 654 b 654 661 710 659 684 660 b 576 656 625 660 599 659 b 508 642 554 654 531 649 b 451 613 485 634 466 625 b 415 563 437 600 424 584 b 401 489 405 542 400 518 l 401 465 b 415 390 400 437 405 412 b 451 340 424 369 437 352 b 508 311 466 328 485 319 b 576 297 531 304 554 299 b 654 292 599 294 625 293 b 733 297 684 293 710 294 b 801 311 755 299 778 304 b 858 340 825 319 844 328 b 894 390 873 352 885 369 b 907 465 904 412 908 437 m 571 1043 l 256 1043 l 561 1343 l 649 1343 l 654 1349 l 661 1343 l 747 1343 l 1053 1043 l 739 1043 l 654 1129 "},"Õ":{"ha":1310,"x_min":0,"x_max":0,"o":"m 1094 881 b 1279 511 1218 803 1279 680 l 1279 443 b 1164 128 1280 309 1242 204 b 654 -25 1062 26 892 -25 b 144 128 416 -25 246 26 b 29 443 67 204 28 309 l 29 511 b 144 826 28 644 67 750 b 654 978 246 927 416 978 b 1094 881 845 978 992 945 m 907 489 b 894 563 908 518 904 542 b 858 613 885 584 873 600 b 801 642 844 625 824 634 b 732 656 777 649 754 654 b 654 661 710 659 684 660 b 576 656 625 660 599 659 b 508 642 554 654 531 649 b 451 613 485 634 466 625 b 415 563 437 600 424 584 b 401 489 405 542 400 518 l 401 465 b 415 390 400 437 405 412 b 451 340 424 369 437 352 b 508 311 466 328 485 319 b 576 297 531 304 554 299 b 654 292 599 294 625 293 b 733 297 684 293 710 294 b 801 311 755 299 778 304 b 858 340 825 319 844 328 b 894 390 873 352 885 369 b 907 465 904 412 908 437 m 369 1114 b 424 1301 367 1194 385 1256 b 532 1351 453 1335 489 1351 b 598 1340 555 1351 577 1347 b 685 1297 619 1332 648 1318 l 689 1294 b 778 1257 732 1270 762 1258 b 779 1279 779 1263 779 1271 l 781 1349 l 938 1349 l 939 1282 b 888 1092 943 1199 925 1135 b 779 1043 859 1059 823 1043 b 714 1054 758 1043 736 1047 b 625 1096 692 1062 662 1075 l 624 1096 b 607 1106 620 1099 614 1102 b 532 1139 570 1128 545 1139 b 529 1114 530 1133 529 1125 l 526 1046 l 372 1046 "},"Ö":{"ha":1310,"x_min":0,"x_max":0,"o":"m 1094 881 b 1279 511 1218 803 1279 680 l 1279 443 b 1164 128 1280 309 1242 204 b 654 -25 1062 26 892 -25 b 144 128 416 -25 246 26 b 29 443 67 204 28 309 l 29 511 b 144 826 28 644 67 750 b 654 978 246 927 416 978 b 1094 881 845 978 992 945 m 907 489 b 894 563 908 518 904 542 b 858 613 885 584 873 600 b 801 642 844 625 824 634 b 732 656 777 649 754 654 b 654 661 710 659 684 660 b 576 656 625 660 599 659 b 508 642 554 654 531 649 b 451 613 485 634 466 625 b 415 563 437 600 424 584 b 401 489 405 542 400 518 l 401 465 b 415 390 400 437 405 412 b 451 340 424 369 437 352 b 508 311 466 328 485 319 b 576 297 531 304 554 299 b 654 292 599 294 625 293 b 733 297 684 293 710 294 b 801 311 755 299 778 304 b 858 340 825 319 844 328 b 894 390 873 352 885 369 b 907 465 904 412 908 437 m 421 1043 b 406 1049 415 1043 410 1045 b 400 1064 402 1053 400 1058 l 400 1247 b 406 1262 400 1253 402 1258 b 421 1268 410 1266 415 1268 l 596 1268 b 612 1262 602 1268 608 1266 b 618 1247 616 1258 618 1253 l 618 1064 b 612 1049 618 1058 616 1053 b 596 1043 608 1045 602 1043 m 713 1043 b 698 1049 707 1043 702 1045 b 692 1064 694 1053 692 1058 l 692 1247 b 698 1262 692 1253 694 1258 b 713 1268 702 1266 707 1268 l 888 1268 b 902 1262 893 1268 898 1266 b 908 1247 906 1258 908 1253 l 908 1064 b 902 1049 908 1058 906 1053 b 888 1043 898 1045 893 1043 "},"×":{"ha":915,"x_min":0,"x_max":0,"o":"m 867 278 l 751 26 l 457 296 l 163 26 l 47 278 l 261 474 l 47 671 l 163 921 l 457 653 l 751 921 l 867 671 l 653 474 "},"Ø":{"ha":1318,"x_min":0,"x_max":0,"o":"m 1150 842 b 1283 511 1239 764 1283 654 l 1283 443 b 1168 128 1283 309 1245 204 b 658 -25 1065 26 895 -25 b 438 -7 577 -25 503 -19 l 403 -47 l 31 -47 l 165 111 b 147 128 159 117 153 122 b 32 443 70 204 32 309 l 32 511 b 147 826 32 644 70 750 b 658 978 249 927 419 978 b 879 960 739 978 813 972 l 913 1001 l 1285 1001 l 1150 842 m 404 465 b 413 406 404 443 407 423 l 626 660 b 540 649 593 658 564 654 b 470 624 515 644 492 636 b 421 572 448 612 432 594 b 404 489 410 549 404 521 l 404 465 m 911 489 b 904 547 911 510 909 530 l 689 293 b 776 303 722 295 751 298 b 845 329 800 309 823 317 b 894 381 867 341 883 359 b 911 465 906 404 911 432 "},"Ù":{"ha":1343,"x_min":0,"x_max":0,"o":"m 1297 963 l 1297 442 b 1182 122 1297 306 1259 200 b 671 -33 1080 19 910 -32 b 161 122 433 -32 263 19 b 46 442 83 200 45 306 l 46 963 l 418 963 l 418 464 b 481 328 417 398 438 353 b 671 289 523 304 587 291 b 862 328 756 291 820 304 b 924 464 904 353 925 398 l 924 963 m 288 1331 b 296 1345 287 1336 289 1341 b 321 1351 302 1349 311 1351 l 678 1351 b 703 1345 688 1351 696 1349 b 711 1331 709 1341 712 1336 l 833 1060 b 801 1043 831 1049 821 1043 l 563 1043 b 531 1060 543 1043 532 1049 "},"Ú":{"ha":1343,"x_min":0,"x_max":0,"o":"m 1297 963 l 1297 442 b 1182 122 1297 306 1259 200 b 671 -33 1080 19 910 -32 b 161 122 433 -32 263 19 b 46 442 83 200 45 306 l 46 963 l 418 963 l 418 464 b 481 328 417 398 438 353 b 671 289 523 304 587 291 b 862 328 756 291 820 304 b 924 464 904 353 925 398 l 924 963 m 581 1043 b 547 1060 561 1043 550 1049 l 669 1331 b 678 1345 669 1336 671 1341 b 703 1351 684 1349 693 1351 l 1061 1351 b 1085 1345 1070 1351 1078 1349 b 1093 1331 1092 1341 1095 1336 l 851 1060 b 818 1043 849 1049 838 1043 l 581 1043 "},"Û":{"ha":1343,"x_min":0,"x_max":0,"o":"m 1297 963 l 1297 442 b 1182 122 1297 306 1259 200 b 671 -33 1080 19 910 -32 b 161 122 433 -32 263 19 b 46 442 83 200 45 306 l 46 963 l 418 963 l 418 464 b 481 328 417 398 438 353 b 671 289 523 304 587 291 b 862 328 756 291 820 304 b 924 464 904 353 925 398 l 924 963 m 588 1043 l 274 1043 l 578 1343 l 665 1343 l 671 1349 l 678 1343 l 764 1343 l 1069 1043 l 756 1043 l 671 1129 "},"Ü":{"ha":1343,"x_min":0,"x_max":0,"o":"m 1297 963 l 1297 442 b 1182 122 1297 306 1259 200 b 671 -33 1080 19 910 -32 b 161 122 433 -32 263 19 b 46 442 83 200 45 306 l 46 963 l 418 963 l 418 464 b 481 328 417 398 438 353 b 671 289 523 304 587 291 b 862 328 756 291 820 304 b 924 464 904 353 925 398 l 924 963 m 439 1043 b 423 1049 432 1043 427 1045 b 417 1064 419 1053 417 1058 l 417 1247 b 423 1262 417 1253 419 1258 b 439 1268 427 1266 432 1268 l 613 1268 b 628 1262 619 1268 624 1266 b 635 1247 633 1258 635 1253 l 635 1064 b 628 1049 635 1058 633 1053 b 613 1043 624 1045 619 1043 m 729 1043 b 715 1049 724 1043 719 1045 b 708 1064 710 1053 708 1058 l 708 1247 b 715 1262 708 1253 710 1258 b 729 1268 719 1266 724 1268 l 904 1268 b 920 1262 911 1268 916 1266 b 926 1247 924 1258 926 1253 l 926 1064 b 920 1049 926 1058 924 1053 b 904 1043 916 1045 911 1043 "},"Ý":{"ha":1375,"x_min":0,"x_max":0,"o":"m 1390 963 l 874 322 l 874 -10 l 501 -10 l 501 322 l -15 963 l 429 963 l 688 628 l 946 963 m 628 1043 b 594 1060 608 1043 597 1049 l 717 1331 b 725 1345 716 1336 719 1341 b 750 1351 731 1349 740 1351 l 1108 1351 b 1133 1345 1119 1351 1127 1349 b 1140 1331 1140 1341 1142 1336 l 899 1060 b 865 1043 896 1049 885 1043 "},"ß":{"ha":881,"x_min":0,"x_max":0,"o":"m 713 503 b 760 450 733 481 749 464 b 802 391 772 436 786 416 b 838 308 818 366 830 338 b 850 213 846 279 850 247 b 754 -25 850 115 818 36 b 506 -117 690 -86 607 -117 b 376 -100 458 -117 415 -111 l 376 -101 l 58 -101 l 58 653 b 186 1040 58 830 101 959 b 457 1142 257 1108 348 1142 b 582 1119 500 1142 541 1134 b 692 1056 623 1105 659 1083 b 770 947 724 1028 750 991 b 800 799 790 902 800 852 b 751 625 800 732 784 674 l 736 601 l 710 589 b 669 561 688 579 674 569 b 713 503 669 554 684 534 m 403 824 b 376 658 385 793 376 738 b 486 786 400 709 436 752 b 482 819 486 800 485 811 b 469 837 479 828 475 834 b 456 843 464 840 459 842 b 443 844 453 844 449 844 b 403 824 424 844 410 838 m 497 179 b 522 183 508 179 517 181 b 532 192 528 186 531 189 b 533 203 533 194 533 198 b 525 237 533 215 531 226 b 489 281 519 247 507 262 l 488 282 b 376 428 433 338 396 386 l 376 224 l 428 197 b 497 179 450 185 473 179 "},"à":{"ha":1344,"x_min":0,"x_max":0,"o":"m 267 1331 b 275 1345 266 1336 269 1341 b 300 1351 281 1349 290 1351 l 658 1351 b 683 1345 668 1351 676 1349 b 690 1331 690 1341 692 1336 l 814 1060 b 781 1043 811 1049 800 1043 l 543 1043 b 510 1060 524 1043 513 1049 m 1357 -10 l 953 -10 l 897 119 l 447 119 l 392 -10 l -14 -10 l 464 963 l 881 963 m 804 340 l 672 651 l 540 340 "},"á":{"ha":1344,"x_min":0,"x_max":0,"o":"m 564 1043 b 531 1060 544 1043 533 1049 l 653 1331 b 661 1345 652 1336 655 1341 b 686 1351 668 1349 676 1351 l 1044 1351 b 1069 1345 1054 1351 1062 1349 b 1076 1331 1076 1341 1078 1336 l 835 1060 b 801 1043 832 1049 821 1043 l 564 1043 m 881 963 l 1357 -10 l 953 -10 l 897 119 l 447 119 l 392 -10 l -14 -10 l 464 963 m 804 340 l 672 651 l 540 340 "},"â":{"ha":1344,"x_min":0,"x_max":0,"o":"m 588 1043 l 274 1043 l 579 1343 l 665 1343 l 672 1349 l 678 1343 l 765 1343 l 1071 1043 l 756 1043 l 672 1129 m 881 963 l 1357 -10 l 953 -10 l 897 119 l 447 119 l 392 -10 l -14 -10 l 464 963 m 804 340 l 672 651 l 540 340 "},"ã":{"ha":1344,"x_min":0,"x_max":0,"o":"m 881 963 l 1357 -10 l 953 -10 l 897 119 l 447 119 l 392 -10 l -14 -10 l 464 963 m 804 340 l 672 651 l 540 340 m 386 1114 b 440 1301 383 1194 401 1256 b 550 1351 470 1335 506 1351 b 616 1340 573 1351 595 1347 b 701 1297 637 1332 665 1318 l 706 1294 b 794 1257 750 1270 780 1258 b 796 1279 795 1263 796 1271 l 797 1349 l 954 1349 l 957 1282 b 906 1092 960 1199 943 1135 b 797 1043 877 1059 841 1043 b 732 1054 776 1043 754 1047 b 643 1096 710 1062 680 1075 l 642 1096 b 625 1106 638 1099 632 1102 b 550 1139 587 1128 562 1139 l 549 1139 b 546 1114 548 1133 547 1125 l 544 1046 l 389 1046 "},"ä":{"ha":1344,"x_min":0,"x_max":0,"o":"m 881 963 l 1357 -10 l 953 -10 l 897 119 l 447 119 l 392 -10 l -14 -10 l 464 963 m 804 340 l 672 651 l 540 340 m 439 1043 b 424 1049 433 1043 428 1045 b 417 1064 419 1053 417 1058 l 417 1247 b 424 1262 417 1253 419 1258 b 439 1268 428 1266 433 1268 l 614 1268 b 628 1262 619 1268 624 1266 b 635 1247 633 1258 635 1253 l 635 1064 b 628 1049 635 1058 633 1053 b 614 1043 624 1045 619 1043 m 731 1043 b 715 1049 724 1043 719 1045 b 708 1064 710 1053 708 1058 l 708 1247 b 715 1262 708 1253 710 1258 b 731 1268 719 1266 724 1268 l 906 1268 b 920 1262 911 1268 916 1266 b 926 1247 924 1258 926 1253 l 926 1064 b 920 1049 926 1058 924 1053 b 906 1043 916 1045 911 1043 "},"å":{"ha":1342,"x_min":0,"x_max":0,"o":"m 1356 -10 l 951 -10 l 896 119 l 446 119 l 390 -10 l -15 -10 l 463 963 l 671 963 b 491 1037 600 963 541 987 b 417 1217 441 1086 417 1146 b 491 1397 417 1287 441 1347 b 671 1472 541 1447 600 1472 b 851 1397 741 1472 801 1447 b 925 1217 900 1347 925 1287 b 851 1037 925 1146 900 1086 b 671 963 801 987 741 963 l 879 963 m 578 1217 b 605 1151 578 1192 587 1170 b 671 1124 623 1133 645 1124 b 737 1151 697 1124 719 1133 b 764 1217 755 1170 764 1192 b 737 1283 764 1243 755 1265 b 671 1311 719 1302 697 1311 b 605 1283 645 1311 623 1302 b 578 1217 587 1265 578 1243 m 803 340 l 671 651 l 539 340 "},"æ":{"ha":1785,"x_min":0,"x_max":0,"o":"m 1043 313 l 1738 313 l 1738 -10 l 671 -10 l 671 119 l 447 119 l 392 -10 l -14 -10 l 464 963 l 1738 963 l 1738 640 l 1043 640 l 1043 586 l 1536 586 l 1536 367 l 1043 367 m 671 340 l 671 647 l 540 340 "},"ç":{"ha":1306,"x_min":0,"x_max":0,"o":"m 900 407 l 1279 407 l 1278 396 b 700 -25 1259 126 1067 -14 l 686 -54 b 722 -81 700 -62 712 -70 b 765 -199 752 -109 766 -149 l 765 -225 b 696 -364 766 -288 743 -334 b 531 -400 657 -388 602 -400 l 521 -400 b 379 -372 463 -399 415 -390 l 440 -244 b 531 -281 450 -269 481 -281 b 581 -275 551 -281 568 -279 b 625 -215 611 -268 626 -248 l 625 -207 b 624 -186 625 -200 625 -193 b 531 -142 615 -157 584 -143 b 488 -146 513 -142 499 -143 l 546 -24 l 546 -21 b 144 128 364 -7 231 43 b 29 443 67 204 28 309 l 29 511 b 214 881 28 680 90 803 b 654 978 318 945 464 978 b 1278 557 1050 977 1258 837 l 1279 546 l 900 546 l 899 553 b 819 634 885 590 858 617 b 654 660 781 651 725 660 b 464 622 570 659 506 646 b 401 488 421 598 400 553 l 401 465 b 415 390 401 437 406 412 b 451 340 425 369 437 352 b 508 311 466 328 485 319 b 576 297 531 304 554 299 b 654 292 599 294 625 293 b 820 318 725 292 781 300 b 899 400 859 336 886 363 "},"è":{"ha":1176,"x_min":0,"x_max":0,"o":"m 435 313 l 1131 313 l 1131 -10 l 63 -10 l 63 963 l 1129 963 l 1131 640 l 435 640 l 435 586 l 929 586 l 929 367 l 435 367 m 215 1331 b 223 1345 213 1336 216 1341 b 247 1351 230 1349 238 1351 l 606 1351 b 631 1345 616 1351 624 1349 b 639 1331 637 1341 640 1336 l 761 1060 b 728 1043 758 1049 747 1043 l 490 1043 b 457 1060 471 1043 460 1049 "},"é":{"ha":1176,"x_min":0,"x_max":0,"o":"m 435 313 l 1131 313 l 1131 -10 l 63 -10 l 63 963 l 1129 963 l 1131 640 l 435 640 l 435 586 l 929 586 l 929 367 l 435 367 m 536 1043 b 504 1060 517 1043 506 1049 l 626 1331 b 635 1345 625 1336 628 1341 b 660 1351 641 1349 650 1351 l 1017 1351 b 1042 1345 1027 1351 1035 1349 b 1050 1331 1048 1341 1051 1336 l 807 1060 b 774 1043 805 1049 794 1043 l 536 1043 "},"ê":{"ha":1176,"x_min":0,"x_max":0,"o":"m 435 313 l 1131 313 l 1131 -10 l 63 -10 l 63 963 l 1129 963 l 1131 640 l 435 640 l 435 586 l 929 586 l 929 367 l 435 367 m 513 1043 l 199 1043 l 503 1343 l 590 1343 l 596 1349 l 603 1343 l 689 1343 l 994 1043 l 681 1043 l 596 1129 "},"ë":{"ha":1176,"x_min":0,"x_max":0,"o":"m 364 1043 b 348 1049 357 1043 352 1045 b 342 1064 344 1053 342 1058 l 342 1247 b 348 1262 342 1253 344 1258 b 364 1268 352 1266 357 1268 l 538 1268 b 553 1262 544 1268 549 1266 b 560 1247 558 1258 560 1253 l 560 1064 b 553 1049 560 1058 558 1053 b 538 1043 549 1045 544 1043 m 654 1043 b 640 1049 649 1043 644 1045 b 633 1064 635 1053 633 1058 l 633 1247 b 640 1262 633 1253 635 1258 b 654 1268 644 1266 649 1268 l 829 1268 b 845 1262 836 1268 841 1266 b 851 1247 849 1258 851 1253 l 851 1064 b 845 1049 851 1058 849 1053 b 829 1043 841 1045 836 1043 m 435 313 l 1131 313 l 1131 -10 l 63 -10 l 63 963 l 1129 963 l 1131 640 l 435 640 l 435 586 l 929 586 l 929 367 l 435 367 "},"ì":{"ha":497,"x_min":0,"x_max":0,"o":"m 63 -10 l 63 963 l 435 963 l 435 -10 m 132 1043 b 99 1060 112 1043 100 1049 l -144 1331 b -136 1345 -145 1336 -143 1341 b -111 1351 -130 1349 -121 1351 l 246 1351 b 272 1345 256 1351 265 1349 b 279 1331 278 1341 281 1336 l 401 1060 b 369 1043 400 1049 389 1043 l 132 1043 "},"í":{"ha":499,"x_min":0,"x_max":0,"o":"m 63 -10 l 63 963 l 435 963 l 435 -10 m 600 1351 b 625 1345 610 1351 619 1349 b 633 1331 631 1341 634 1336 l 390 1060 b 357 1043 388 1049 377 1043 l 119 1043 b 88 1060 100 1043 89 1049 l 210 1331 b 218 1345 209 1336 212 1341 b 243 1351 225 1349 233 1351 l 600 1351 "},"î":{"ha":497,"x_min":0,"x_max":0,"o":"m 63 -10 l 63 963 l 435 963 l 435 -10 m 164 1043 l -150 1043 l 156 1343 l 242 1343 l 249 1349 l 254 1343 l 342 1343 l 647 1043 l 332 1043 l 249 1129 "},"ï":{"ha":496,"x_min":0,"x_max":0,"o":"m 14 1043 b -1 1049 8 1043 3 1045 b -7 1064 -5 1053 -7 1058 l -7 1247 b -1 1262 -7 1253 -5 1258 b 14 1268 3 1266 8 1268 l 189 1268 b 205 1262 195 1268 201 1266 b 211 1247 209 1258 211 1253 l 211 1064 b 205 1049 211 1058 209 1053 b 189 1043 201 1045 195 1043 m 306 1043 b 291 1049 300 1043 295 1045 b 285 1064 287 1053 285 1058 l 285 1247 b 291 1262 285 1253 287 1258 b 306 1268 295 1266 300 1268 l 481 1268 b 495 1262 486 1268 491 1266 b 501 1247 499 1258 501 1253 l 501 1064 b 495 1049 501 1058 499 1053 b 481 1043 491 1045 486 1043 m 61 -10 l 61 963 l 433 963 l 433 -10 "},"ñ":{"ha":1376,"x_min":0,"x_max":0,"o":"m 1314 963 l 1314 -10 l 903 -10 l 435 553 l 435 -10 l 63 -10 l 63 963 l 561 963 l 940 478 l 940 963 m 403 1114 b 457 1301 400 1194 418 1256 b 567 1351 487 1335 523 1351 b 631 1340 589 1351 610 1347 b 718 1297 652 1332 681 1318 l 722 1294 b 811 1257 767 1270 796 1258 b 813 1279 812 1263 813 1271 l 814 1349 l 971 1349 l 974 1282 b 921 1092 976 1199 959 1135 b 814 1043 893 1059 857 1043 b 748 1054 792 1043 770 1047 b 658 1096 726 1062 696 1075 b 642 1106 654 1099 648 1102 b 567 1139 604 1128 579 1139 l 565 1139 b 563 1114 563 1133 563 1125 l 561 1046 l 406 1046 "},"ò":{"ha":1310,"x_min":0,"x_max":0,"o":"m 1094 881 b 1279 511 1218 803 1279 680 l 1279 443 b 1164 128 1280 309 1242 204 b 654 -25 1062 26 892 -25 b 144 128 416 -25 246 26 b 29 443 67 204 28 309 l 29 511 b 144 826 28 644 67 750 b 654 978 246 927 416 978 b 1094 881 845 978 992 945 m 907 489 b 894 563 908 518 904 542 b 858 613 885 584 873 600 b 801 642 844 625 824 634 b 732 656 777 649 754 654 b 654 661 710 659 684 660 b 576 656 625 660 599 659 b 508 642 554 654 531 649 b 451 613 485 634 466 625 b 415 563 437 600 424 584 b 401 489 405 542 400 518 l 401 465 b 415 390 400 437 405 412 b 451 340 424 369 437 352 b 508 311 466 328 485 319 b 576 297 531 304 554 299 b 654 292 599 294 625 293 b 733 297 684 293 710 294 b 801 311 755 299 778 304 b 858 340 825 319 844 328 b 894 390 873 352 885 369 b 907 465 904 412 908 437 m 256 1331 b 264 1345 255 1336 257 1341 b 289 1351 270 1349 279 1351 l 646 1351 b 671 1345 656 1351 664 1349 b 679 1331 677 1341 680 1336 l 801 1060 b 768 1043 800 1049 788 1043 l 531 1043 b 499 1060 511 1043 500 1049 "},"ó":{"ha":1310,"x_min":0,"x_max":0,"o":"m 1094 881 b 1279 511 1218 803 1279 680 l 1279 443 b 1164 128 1280 309 1242 204 b 654 -25 1062 26 892 -25 b 144 128 416 -25 246 26 b 29 443 67 204 28 309 l 29 511 b 144 826 28 644 67 750 b 654 978 246 927 416 978 b 1094 881 845 978 992 945 m 907 489 b 894 563 908 518 904 542 b 858 613 885 584 873 600 b 801 642 844 625 824 634 b 732 656 777 649 754 654 b 654 661 710 659 684 660 b 576 656 625 660 599 659 b 508 642 554 654 531 649 b 451 613 485 634 466 625 b 415 563 437 600 424 584 b 401 489 405 542 400 518 l 401 465 b 415 390 400 437 405 412 b 451 340 424 369 437 352 b 508 311 466 328 485 319 b 576 297 531 304 554 299 b 654 292 599 294 625 293 b 733 297 684 293 710 294 b 801 311 755 299 778 304 b 858 340 825 319 844 328 b 894 390 873 352 885 369 b 907 465 904 412 908 437 m 589 1043 b 556 1060 569 1043 557 1049 l 678 1331 b 686 1345 677 1336 680 1341 b 711 1351 693 1349 701 1351 l 1068 1351 b 1093 1345 1078 1351 1087 1349 b 1101 1331 1100 1341 1102 1336 l 858 1060 b 826 1043 856 1049 846 1043 l 589 1043 "},"ô":{"ha":1310,"x_min":0,"x_max":0,"o":"m 1094 881 b 1279 511 1218 803 1279 680 l 1279 443 b 1164 128 1280 309 1242 204 b 654 -25 1062 26 892 -25 b 144 128 416 -25 246 26 b 29 443 67 204 28 309 l 29 511 b 144 826 28 644 67 750 b 654 978 246 927 416 978 b 1094 881 845 978 992 945 m 907 489 b 894 563 908 518 904 542 b 858 613 885 584 873 600 b 801 642 844 625 824 634 b 732 656 777 649 754 654 b 654 661 710 659 684 660 b 576 656 625 660 599 659 b 508 642 554 654 531 649 b 451 613 485 634 466 625 b 415 563 437 600 424 584 b 401 489 405 542 400 518 l 401 465 b 415 390 400 437 405 412 b 451 340 424 369 437 352 b 508 311 466 328 485 319 b 576 297 531 304 554 299 b 654 292 599 294 625 293 b 733 297 684 293 710 294 b 801 311 755 299 778 304 b 858 340 825 319 844 328 b 894 390 873 352 885 369 b 907 465 904 412 908 437 m 571 1043 l 256 1043 l 561 1343 l 649 1343 l 654 1349 l 661 1343 l 747 1343 l 1053 1043 l 739 1043 l 654 1129 "},"õ":{"ha":1310,"x_min":0,"x_max":0,"o":"m 1094 881 b 1279 511 1218 803 1279 680 l 1279 443 b 1164 128 1280 309 1242 204 b 654 -25 1062 26 892 -25 b 144 128 416 -25 246 26 b 29 443 67 204 28 309 l 29 511 b 144 826 28 644 67 750 b 654 978 246 927 416 978 b 1094 881 845 978 992 945 m 907 489 b 894 563 908 518 904 542 b 858 613 885 584 873 600 b 801 642 844 625 824 634 b 732 656 777 649 754 654 b 654 661 710 659 684 660 b 576 656 625 660 599 659 b 508 642 554 654 531 649 b 451 613 485 634 466 625 b 415 563 437 600 424 584 b 401 489 405 542 400 518 l 401 465 b 415 390 400 437 405 412 b 451 340 424 369 437 352 b 508 311 466 328 485 319 b 576 297 531 304 554 299 b 654 292 599 294 625 293 b 733 297 684 293 710 294 b 801 311 755 299 778 304 b 858 340 825 319 844 328 b 894 390 873 352 885 369 b 907 465 904 412 908 437 m 369 1114 b 424 1301 367 1194 385 1256 b 532 1351 453 1335 489 1351 b 598 1340 555 1351 577 1347 b 685 1297 619 1332 648 1318 l 689 1294 b 778 1257 732 1270 762 1258 b 779 1279 779 1263 779 1271 l 781 1349 l 938 1349 l 939 1282 b 888 1092 943 1199 925 1135 b 779 1043 859 1059 823 1043 b 714 1054 758 1043 736 1047 b 625 1096 692 1062 662 1075 l 624 1096 b 607 1106 620 1099 614 1102 b 532 1139 570 1128 545 1139 b 529 1114 530 1133 529 1125 l 526 1046 l 372 1046 "},"ö":{"ha":1310,"x_min":0,"x_max":0,"o":"m 1094 881 b 1279 511 1218 803 1279 680 l 1279 443 b 1164 128 1280 309 1242 204 b 654 -25 1062 26 892 -25 b 144 128 416 -25 246 26 b 29 443 67 204 28 309 l 29 511 b 144 826 28 644 67 750 b 654 978 246 927 416 978 b 1094 881 845 978 992 945 m 907 489 b 894 563 908 518 904 542 b 858 613 885 584 873 600 b 801 642 844 625 824 634 b 732 656 777 649 754 654 b 654 661 710 659 684 660 b 576 656 625 660 599 659 b 508 642 554 654 531 649 b 451 613 485 634 466 625 b 415 563 437 600 424 584 b 401 489 405 542 400 518 l 401 465 b 415 390 400 437 405 412 b 451 340 424 369 437 352 b 508 311 466 328 485 319 b 576 297 531 304 554 299 b 654 292 599 294 625 293 b 733 297 684 293 710 294 b 801 311 755 299 778 304 b 858 340 825 319 844 328 b 894 390 873 352 885 369 b 907 465 904 412 908 437 m 421 1043 b 406 1049 415 1043 410 1045 b 400 1064 402 1053 400 1058 l 400 1247 b 406 1262 400 1253 402 1258 b 421 1268 410 1266 415 1268 l 596 1268 b 612 1262 602 1268 608 1266 b 618 1247 616 1258 618 1253 l 618 1064 b 612 1049 618 1058 616 1053 b 596 1043 608 1045 602 1043 m 713 1043 b 698 1049 707 1043 702 1045 b 692 1064 694 1053 692 1058 l 692 1247 b 698 1262 692 1253 694 1258 b 713 1268 702 1266 707 1268 l 888 1268 b 902 1262 893 1268 898 1266 b 908 1247 906 1258 908 1253 l 908 1064 b 902 1049 908 1058 906 1053 b 888 1043 898 1045 893 1043 "},"ø":{"ha":1318,"x_min":0,"x_max":0,"o":"m 1150 842 b 1283 511 1239 764 1283 654 l 1283 443 b 1168 128 1283 309 1245 204 b 658 -25 1065 26 895 -25 b 438 -7 577 -25 503 -19 l 403 -47 l 31 -47 l 165 111 b 147 128 159 117 153 122 b 32 443 70 204 32 309 l 32 511 b 147 826 32 644 70 750 b 658 978 249 927 419 978 b 879 960 739 978 813 972 l 913 1001 l 1285 1001 l 1150 842 m 404 465 b 413 406 404 443 407 423 l 626 660 b 540 649 593 658 564 654 b 470 624 515 644 492 636 b 421 572 448 612 432 594 b 404 489 410 549 404 521 l 404 465 m 911 489 b 904 547 911 510 909 530 l 689 293 b 776 303 722 295 751 298 b 845 329 800 309 823 317 b 894 381 867 341 883 359 b 911 465 906 404 911 432 "},"ù":{"ha":1343,"x_min":0,"x_max":0,"o":"m 1297 963 l 1297 442 b 1182 122 1297 306 1259 200 b 671 -33 1080 19 910 -32 b 161 122 433 -32 263 19 b 46 442 83 200 45 306 l 46 963 l 418 963 l 418 464 b 481 328 417 398 438 353 b 671 289 523 304 587 291 b 862 328 756 291 820 304 b 924 464 904 353 925 398 l 924 963 m 288 1331 b 296 1345 287 1336 289 1341 b 321 1351 302 1349 311 1351 l 678 1351 b 703 1345 688 1351 696 1349 b 711 1331 709 1341 712 1336 l 833 1060 b 801 1043 831 1049 821 1043 l 563 1043 b 531 1060 543 1043 532 1049 "},"ú":{"ha":1343,"x_min":0,"x_max":0,"o":"m 1297 963 l 1297 442 b 1182 122 1297 306 1259 200 b 671 -33 1080 19 910 -32 b 161 122 433 -32 263 19 b 46 442 83 200 45 306 l 46 963 l 418 963 l 418 464 b 481 328 417 398 438 353 b 671 289 523 304 587 291 b 862 328 756 291 820 304 b 924 464 904 353 925 398 l 924 963 m 581 1043 b 547 1060 561 1043 550 1049 l 669 1331 b 678 1345 669 1336 671 1341 b 703 1351 684 1349 693 1351 l 1061 1351 b 1085 1345 1070 1351 1078 1349 b 1093 1331 1092 1341 1095 1336 l 851 1060 b 818 1043 849 1049 838 1043 l 581 1043 "},"û":{"ha":1343,"x_min":0,"x_max":0,"o":"m 1297 963 l 1297 442 b 1182 122 1297 306 1259 200 b 671 -33 1080 19 910 -32 b 161 122 433 -32 263 19 b 46 442 83 200 45 306 l 46 963 l 418 963 l 418 464 b 481 328 417 398 438 353 b 671 289 523 304 587 291 b 862 328 756 291 820 304 b 924 464 904 353 925 398 l 924 963 m 588 1043 l 274 1043 l 578 1343 l 665 1343 l 671 1349 l 678 1343 l 764 1343 l 1069 1043 l 756 1043 l 671 1129 "},"ü":{"ha":1343,"x_min":0,"x_max":0,"o":"m 1297 963 l 1297 442 b 1182 122 1297 306 1259 200 b 671 -33 1080 19 910 -32 b 161 122 433 -32 263 19 b 46 442 83 200 45 306 l 46 963 l 418 963 l 418 464 b 481 328 417 398 438 353 b 671 289 523 304 587 291 b 862 328 756 291 820 304 b 924 464 904 353 925 398 l 924 963 m 439 1043 b 423 1049 432 1043 427 1045 b 417 1064 419 1053 417 1058 l 417 1247 b 423 1262 417 1253 419 1258 b 439 1268 427 1266 432 1268 l 613 1268 b 628 1262 619 1268 624 1266 b 635 1247 633 1258 635 1253 l 635 1064 b 628 1049 635 1058 633 1053 b 613 1043 624 1045 619 1043 m 729 1043 b 715 1049 724 1043 719 1045 b 708 1064 710 1053 708 1058 l 708 1247 b 715 1262 708 1253 710 1258 b 729 1268 719 1266 724 1268 l 904 1268 b 920 1262 911 1268 916 1266 b 926 1247 924 1258 926 1253 l 926 1064 b 920 1049 926 1058 924 1053 b 904 1043 916 1045 911 1043 "},"ý":{"ha":1375,"x_min":0,"x_max":0,"o":"m 1390 963 l 874 322 l 874 -10 l 501 -10 l 501 322 l -15 963 l 429 963 l 688 628 l 946 963 m 628 1043 b 594 1060 608 1043 597 1049 l 717 1331 b 725 1345 716 1336 719 1341 b 750 1351 731 1349 740 1351 l 1108 1351 b 1133 1345 1119 1351 1127 1349 b 1140 1331 1140 1341 1142 1336 l 899 1060 b 865 1043 896 1049 885 1043 "},"ÿ":{"ha":1375,"x_min":0,"x_max":0,"o":"m 1390 963 l 874 322 l 874 -10 l 501 -10 l 501 322 l -15 963 l 429 963 l 688 628 l 946 963 m 454 1043 b 440 1049 449 1043 444 1045 b 433 1064 435 1053 433 1058 l 433 1247 b 440 1262 433 1253 435 1258 b 454 1268 444 1266 449 1268 l 629 1268 b 644 1262 635 1268 640 1266 b 650 1247 648 1258 650 1253 l 650 1064 b 644 1049 650 1058 648 1053 b 629 1043 640 1045 635 1043 m 746 1043 b 730 1049 739 1043 734 1045 b 724 1064 726 1053 724 1058 l 724 1247 b 730 1262 724 1253 726 1258 b 746 1268 734 1266 739 1268 l 921 1268 b 935 1262 926 1268 931 1266 b 942 1247 940 1258 942 1253 l 942 1064 b 935 1049 942 1058 940 1053 b 921 1043 931 1045 926 1043 "},"Đ":{"ha":1301,"x_min":0,"x_max":0,"o":"m 1131 842 b 1238 677 1177 795 1213 741 b 1275 476 1264 614 1276 547 b 1238 276 1276 407 1264 340 b 1131 111 1213 213 1177 157 b 842 -10 1049 31 953 -10 l 836 -10 l 111 -10 l 111 367 l 25 367 l 25 586 l 111 586 l 111 963 l 836 963 b 1131 842 950 964 1048 924 m 771 313 b 869 361 813 313 846 329 b 903 476 891 394 903 432 b 869 592 903 521 891 559 b 771 640 846 624 813 640 l 482 640 l 482 586 l 585 586 l 585 367 l 482 367 l 482 313 l 771 313 "},"đ":{"ha":1301,"x_min":0,"x_max":0,"o":"m 1131 842 b 1238 677 1177 795 1213 741 b 1275 476 1264 614 1276 547 b 1238 276 1276 407 1264 340 b 1131 111 1213 213 1177 157 b 842 -10 1049 31 953 -10 l 836 -10 l 111 -10 l 111 367 l 25 367 l 25 586 l 111 586 l 111 963 l 836 963 b 1131 842 950 964 1048 924 m 771 313 b 869 361 813 313 846 329 b 903 476 891 394 903 432 b 869 592 903 521 891 559 b 771 640 846 624 813 640 l 482 640 l 482 586 l 585 586 l 585 367 l 482 367 l 482 313 l 771 313 "},"ı":{"ha":461,"x_min":0,"x_max":0,"o":"m 53 -119 l 53 817 l 407 817 l 407 -119 "},"Œ":{"ha":2022,"x_min":0,"x_max":0,"o":"m 1279 313 l 1975 313 l 1975 -10 l 907 -10 l 907 0 b 654 -25 834 -17 750 -25 b 144 128 416 -25 246 26 b 29 443 67 204 28 309 l 29 511 b 144 826 28 644 67 750 b 654 978 246 927 416 978 b 907 954 750 978 834 970 l 907 963 l 1975 963 l 1975 640 l 1281 640 l 1281 586 l 1774 586 l 1774 367 l 1279 367 m 654 292 b 733 297 684 293 710 294 b 801 311 755 299 778 304 b 858 340 825 319 844 328 b 894 390 873 352 885 369 b 907 465 904 412 908 437 l 907 489 b 894 563 908 518 904 542 b 858 613 885 584 873 600 b 801 642 844 625 824 634 b 732 656 777 649 754 654 b 654 661 710 659 684 660 b 576 656 625 660 599 659 b 508 642 554 654 531 649 b 451 613 485 634 466 625 b 415 563 437 600 424 584 b 401 489 405 542 400 518 l 401 465 b 415 390 400 437 405 412 b 451 340 424 369 437 352 b 508 311 466 328 485 319 b 576 297 531 304 554 299 b 654 292 599 294 625 293 "},"œ":{"ha":2022,"x_min":0,"x_max":0,"o":"m 1279 313 l 1975 313 l 1975 -10 l 907 -10 l 907 0 b 654 -25 834 -17 750 -25 b 144 128 416 -25 246 26 b 29 443 67 204 28 309 l 29 511 b 144 826 28 644 67 750 b 654 978 246 927 416 978 b 907 954 750 978 834 970 l 907 963 l 1975 963 l 1975 640 l 1281 640 l 1281 586 l 1774 586 l 1774 367 l 1279 367 m 654 292 b 733 297 684 293 710 294 b 801 311 755 299 778 304 b 858 340 825 319 844 328 b 894 390 873 352 885 369 b 907 465 904 412 908 437 l 907 489 b 894 563 908 518 904 542 b 858 613 885 584 873 600 b 801 642 844 625 824 634 b 732 656 777 649 754 654 b 654 661 710 659 684 660 b 576 656 625 660 599 659 b 508 642 554 654 531 649 b 451 613 485 634 466 625 b 415 563 437 600 424 584 b 401 489 405 542 400 518 l 401 465 b 415 390 400 437 405 412 b 451 340 424 369 437 352 b 508 311 466 328 485 319 b 576 297 531 304 554 299 b 654 292 599 294 625 293 "},"Š":{"ha":1254,"x_min":0,"x_max":0,"o":"m 1015 542 b 1219 317 1152 499 1220 424 b 1036 42 1219 189 1158 97 b 626 -25 939 -3 802 -25 b 229 33 447 -24 314 -5 b 32 315 113 84 47 178 l 31 326 l 399 326 l 403 321 b 626 235 432 263 507 235 b 684 238 645 235 664 236 b 756 247 704 239 728 243 b 823 272 783 252 806 260 b 849 317 840 284 849 299 b 830 336 849 324 842 331 b 772 349 817 342 798 346 b 703 356 745 353 722 355 b 618 361 683 358 655 359 l 617 361 b 236 411 440 370 313 387 b 32 636 100 454 32 529 b 217 913 32 764 94 856 b 626 978 313 956 450 978 b 747 975 672 978 712 977 b 860 964 781 973 819 969 b 968 941 902 958 938 951 b 1060 901 999 931 1029 918 b 1138 841 1091 885 1117 865 b 1190 754 1158 817 1175 788 b 1219 638 1205 720 1215 681 l 1221 626 l 853 626 l 850 632 b 626 718 820 689 746 718 b 562 715 604 718 583 717 b 491 705 541 713 517 710 b 427 680 465 700 443 691 b 403 636 411 668 403 654 b 421 617 403 629 409 622 b 478 605 433 612 452 608 b 547 598 505 602 528 599 b 633 593 567 597 595 595 l 635 593 b 1015 542 812 583 938 566 m 533 1049 l 228 1349 l 542 1349 l 626 1263 l 710 1349 l 1024 1349 l 719 1049 l 632 1049 l 626 1043 l 619 1049 "},"š":{"ha":1254,"x_min":0,"x_max":0,"o":"m 1015 542 b 1219 317 1152 499 1220 424 b 1036 42 1219 189 1158 97 b 626 -25 939 -3 802 -25 b 229 33 447 -24 314 -5 b 32 315 113 84 47 178 l 31 326 l 399 326 l 403 321 b 626 235 432 263 507 235 b 684 238 645 235 664 236 b 756 247 704 239 728 243 b 823 272 783 252 806 260 b 849 317 840 284 849 299 b 830 336 849 324 842 331 b 772 349 817 342 798 346 b 703 356 745 353 722 355 b 618 361 683 358 655 359 l 617 361 b 236 411 440 370 313 387 b 32 636 100 454 32 529 b 217 913 32 764 94 856 b 626 978 313 956 450 978 b 747 975 672 978 712 977 b 860 964 781 973 819 969 b 968 941 902 958 938 951 b 1060 901 999 931 1029 918 b 1138 841 1091 885 1117 865 b 1190 754 1158 817 1175 788 b 1219 638 1205 720 1215 681 l 1221 626 l 853 626 l 850 632 b 626 718 820 689 746 718 b 562 715 604 718 583 717 b 491 705 541 713 517 710 b 427 680 465 700 443 691 b 403 636 411 668 403 654 b 421 617 403 629 409 622 b 478 605 433 612 452 608 b 547 598 505 602 528 599 b 633 593 567 597 595 595 l 635 593 b 1015 542 812 583 938 566 m 533 1049 l 228 1349 l 542 1349 l 626 1263 l 710 1349 l 1024 1349 l 719 1049 l 632 1049 l 626 1043 l 619 1049 "},"Ÿ":{"ha":1375,"x_min":0,"x_max":0,"o":"m 1390 963 l 874 322 l 874 -10 l 501 -10 l 501 322 l -15 963 l 429 963 l 688 628 l 946 963 m 454 1043 b 440 1049 449 1043 444 1045 b 433 1064 435 1053 433 1058 l 433 1247 b 440 1262 433 1253 435 1258 b 454 1268 444 1266 449 1268 l 629 1268 b 644 1262 635 1268 640 1266 b 650 1247 648 1258 650 1253 l 650 1064 b 644 1049 650 1058 648 1053 b 629 1043 640 1045 635 1043 m 746 1043 b 730 1049 739 1043 734 1045 b 724 1064 726 1053 724 1058 l 724 1247 b 730 1262 724 1253 726 1258 b 746 1268 734 1266 739 1268 l 921 1268 b 935 1262 926 1268 931 1266 b 942 1247 940 1258 942 1253 l 942 1064 b 935 1049 942 1058 940 1053 b 921 1043 931 1045 926 1043 "},"Ž":{"ha":1197,"x_min":0,"x_max":0,"o":"m 1150 644 l 604 314 l 1150 314 l 1150 -10 l 46 -10 l 46 310 l 572 640 l 46 640 l 46 963 l 1150 963 m 506 1049 l 200 1349 l 514 1349 l 599 1263 l 682 1349 l 996 1349 l 692 1049 l 604 1049 l 599 1043 l 592 1049 "},"ž":{"ha":1197,"x_min":0,"x_max":0,"o":"m 1150 644 l 604 314 l 1150 314 l 1150 -10 l 46 -10 l 46 310 l 572 640 l 46 640 l 46 963 l 1150 963 m 506 1049 l 200 1349 l 514 1349 l 599 1263 l 682 1349 l 996 1349 l 692 1049 l 604 1049 l 599 1043 l 592 1049 "},"–":{"ha":708,"x_min":0,"x_max":0,"o":"m 42 174 l 42 379 l 667 379 l 667 174 "},"—":{"ha":1394,"x_min":0,"x_max":0,"o":"m 42 174 l 42 379 l 1353 379 l 1353 174 "},"‘":{"ha":404,"x_min":0,"x_max":0,"o":"m 328 924 b 349 915 336 924 343 921 b 357 894 354 910 357 903 l 357 654 b 349 633 357 646 354 639 b 328 624 343 627 336 624 l 76 624 b 56 633 68 624 61 627 b 47 654 50 639 47 646 l 47 910 b 50 922 47 914 48 919 l 171 1185 b 197 1201 176 1196 185 1201 l 267 1201 b 291 1190 277 1201 285 1198 b 296 1165 297 1183 299 1175 l 242 961 b 247 935 240 952 242 943 b 271 924 253 928 261 924 l 328 924 "},"’":{"ha":396,"x_min":0,"x_max":0,"o":"m 324 1138 b 344 1128 332 1138 339 1134 b 353 1107 350 1122 353 1115 l 353 851 b 350 839 353 847 352 843 l 229 576 b 203 558 224 564 215 558 l 133 558 b 109 570 123 558 115 562 b 104 596 103 578 101 587 l 158 800 b 153 826 160 809 158 818 b 129 838 147 834 139 838 l 72 838 b 51 846 64 838 57 840 b 43 867 46 851 43 858 l 43 1107 b 51 1128 43 1115 46 1122 b 72 1138 57 1134 64 1138 l 324 1138 "},"“":{"ha":763,"x_min":0,"x_max":0,"o":"m 328 924 b 349 915 336 924 343 921 b 357 894 354 910 357 903 l 357 654 b 349 633 357 646 354 639 b 328 624 343 627 336 624 l 76 624 b 56 633 68 624 61 627 b 47 654 50 639 47 646 l 47 910 b 50 922 47 914 48 919 l 171 1185 b 197 1201 176 1196 185 1201 l 267 1201 b 291 1190 277 1201 285 1198 b 296 1165 297 1183 299 1175 l 242 961 b 247 935 240 952 242 943 b 271 924 253 928 261 924 l 328 924 m 686 924 b 706 915 694 924 700 921 b 715 894 712 910 715 903 l 715 654 b 706 633 715 646 712 639 b 686 624 700 627 694 624 l 435 624 b 414 633 426 624 419 627 b 406 654 408 639 406 646 l 406 910 b 408 922 406 914 406 919 l 529 1185 b 556 1201 534 1196 543 1201 l 625 1201 b 649 1190 635 1201 643 1198 b 654 1165 654 1183 656 1175 l 600 961 b 605 935 597 952 599 943 b 629 924 611 928 619 924 l 686 924 "},"”":{"ha":754,"x_min":0,"x_max":0,"o":"m 324 1138 b 344 1128 332 1138 339 1134 b 353 1107 350 1122 353 1115 l 353 851 b 350 839 353 847 352 843 l 229 576 b 203 558 224 564 215 558 l 133 558 b 109 570 123 558 115 562 b 104 596 103 578 101 587 l 158 800 b 153 826 160 809 158 818 b 129 838 147 834 139 838 l 72 838 b 51 846 64 838 57 840 b 43 867 46 851 43 858 l 43 1107 b 51 1128 43 1115 46 1122 b 72 1138 57 1134 64 1138 l 324 1138 m 682 1138 b 702 1128 689 1138 696 1134 b 711 1107 708 1122 711 1115 l 711 851 b 708 839 711 847 710 843 l 588 576 b 561 558 582 564 573 558 l 490 558 b 467 570 481 558 473 562 b 463 596 461 578 460 587 l 517 800 b 510 826 519 809 516 818 b 488 838 504 834 497 838 l 431 838 b 410 846 422 838 415 840 b 401 867 404 851 401 858 l 401 1107 b 410 1128 401 1115 404 1122 b 431 1138 415 1134 422 1138 l 682 1138 "},"„":{"ha":760,"x_min":0,"x_max":0,"o":"m 326 288 b 347 278 335 288 342 284 b 356 257 353 272 356 265 l 356 1 b 353 -11 356 -3 355 -7 l 232 -274 b 206 -290 226 -285 218 -290 l 136 -290 b 112 -279 126 -290 118 -287 b 107 -254 106 -272 104 -263 l 161 -50 b 156 -24 163 -41 161 -32 b 132 -12 150 -16 142 -12 l 75 -12 b 54 -4 67 -12 60 -10 b 46 17 49 1 46 8 l 46 257 b 54 278 46 265 49 272 b 75 288 60 284 67 288 l 326 288 m 685 288 b 705 278 692 288 699 284 b 714 257 711 272 714 265 l 714 1 b 711 -11 714 -3 713 -7 l 590 -274 b 564 -290 585 -285 576 -290 l 493 -290 b 470 -279 484 -290 476 -287 b 465 -254 464 -272 463 -263 l 519 -50 b 513 -24 521 -41 519 -32 b 490 -12 507 -16 500 -12 l 433 -12 b 413 -4 425 -12 418 -10 b 404 17 407 1 404 8 l 404 257 b 413 278 404 265 407 272 b 433 288 418 284 425 288 l 685 288 "},"†":{"ha":897,"x_min":0,"x_max":0,"o":"m 850 451 l 613 464 l 624 -192 l 274 -192 l 283 464 l 47 451 l 47 801 l 282 792 l 271 1092 l 626 1092 l 615 792 l 850 801 "},"•":{"ha":567,"x_min":0,"x_max":0,"o":"m 283 719 b 450 647 348 719 404 695 b 519 474 496 599 519 541 b 451 297 519 403 497 344 b 283 225 405 249 349 225 b 115 296 216 225 161 249 b 47 471 70 343 47 401 b 118 649 46 541 70 600 b 283 719 163 696 219 719 "},"…":{"ha":1343,"x_min":0,"x_max":0,"o":"m 672 364 b 792 314 720 364 760 347 b 842 188 823 281 840 238 l 842 185 b 794 60 842 135 826 93 b 671 6 762 24 721 6 b 551 56 624 6 584 22 b 501 186 517 90 500 133 b 551 313 501 237 518 279 b 672 364 584 347 624 364 m 1129 364 b 1250 313 1177 364 1218 347 b 1299 185 1282 278 1299 236 b 1250 57 1299 134 1282 91 b 1128 6 1218 23 1177 6 b 1007 57 1080 6 1039 23 b 958 185 975 91 958 134 b 1007 313 958 236 975 278 b 1129 364 1039 347 1080 364 m 214 364 b 335 313 263 364 303 347 b 383 185 367 279 383 237 b 335 57 383 134 367 91 b 214 6 302 23 262 6 b 94 56 167 6 127 22 b 44 186 60 90 44 133 b 93 313 44 237 61 279 b 214 364 125 347 166 364 "},"‰":{"ha":2757,"x_min":0,"x_max":0,"o":"m 1696 621 b 1776 593 1725 614 1751 605 b 1848 544 1800 581 1824 565 b 1903 463 1872 524 1890 497 b 1924 347 1917 429 1924 391 l 1924 275 b 1801 43 1924 168 1883 90 b 1696 1 1768 24 1733 10 b 1554 -12 1647 -8 1600 -12 b 1413 1 1509 -12 1462 -8 b 1185 275 1261 38 1185 129 l 1185 347 b 1307 579 1185 455 1225 532 b 1413 621 1340 599 1375 613 b 1554 635 1462 630 1509 635 b 1696 621 1600 635 1647 630 m 1661 332 b 1632 400 1661 365 1651 388 b 1554 418 1615 412 1589 418 b 1472 398 1516 418 1489 411 b 1447 332 1456 384 1447 363 l 1447 289 b 1475 222 1447 256 1456 234 b 1554 204 1493 210 1519 204 b 1635 224 1591 204 1618 211 b 1661 289 1653 238 1661 259 m 2483 621 b 2563 593 2512 614 2539 605 b 2635 544 2588 581 2612 565 b 2691 463 2659 524 2678 497 b 2711 347 2704 429 2711 391 l 2711 275 b 2589 43 2711 168 2670 90 b 2483 1 2555 24 2519 10 b 2342 -12 2434 -8 2387 -12 b 2200 1 2296 -12 2249 -8 b 1972 275 2048 38 1972 129 l 1972 347 b 2094 579 1972 455 2013 532 b 2200 621 2128 599 2163 613 b 2342 635 2248 630 2295 635 b 2483 621 2387 635 2434 630 m 2449 332 b 2419 400 2449 365 2439 388 b 2342 418 2403 412 2377 418 b 2260 398 2304 418 2276 411 b 2235 332 2243 384 2235 363 l 2235 289 b 2263 222 2235 256 2244 234 b 2342 204 2280 210 2306 204 b 2423 224 2379 204 2406 211 b 2449 289 2440 238 2449 259 m 1339 1053 l 981 -12 l 629 -12 l 988 1053 m 782 692 b 660 460 782 584 741 507 b 556 419 627 441 593 428 b 414 406 506 410 458 406 b 272 419 368 406 320 410 b 102 515 197 437 141 469 b 44 692 64 562 44 620 l 44 765 b 167 997 44 873 85 950 b 272 1038 199 1016 234 1029 b 414 1053 320 1048 368 1053 b 556 1038 458 1053 506 1048 b 782 765 707 1001 783 911 m 521 750 b 492 818 521 783 511 806 b 414 836 475 830 449 836 b 332 815 376 836 349 829 b 307 750 315 801 307 780 l 307 707 b 335 639 307 675 316 652 b 414 622 352 628 379 622 b 495 642 451 622 478 629 b 521 707 512 656 521 677 "},"‹":{"ha":676,"x_min":0,"x_max":0,"o":"m 386 372 l 643 0 l 288 0 l 33 372 l 288 746 l 643 746 "},"›":{"ha":674,"x_min":0,"x_max":0,"o":"m 640 363 l 388 -10 l 31 -10 l 288 363 l 31 736 l 388 736 "},"€":{"ha":739,"x_min":0,"x_max":0,"o":"m 476 229 b 574 274 512 229 544 244 l 699 126 b 476 26 635 60 561 26 b 222 164 376 26 292 72 b 144 326 187 211 161 265 l 46 326 l 46 453 l 125 453 l 125 475 l 125 499 l 46 499 l 46 624 l 144 624 b 222 786 161 685 187 739 b 476 924 292 878 376 924 b 699 824 561 924 635 890 l 574 676 b 476 721 544 706 512 721 b 361 656 433 721 394 699 b 342 624 355 645 348 635 l 432 624 l 432 499 l 307 499 l 307 475 l 307 453 l 432 453 l 432 326 l 342 326 b 361 296 348 315 355 305 b 476 229 394 251 433 229 "}}}
